<svg width="365" height="358" viewBox="0 0 365 358" fill="none" xmlns="http://www.w3.org/2000/svg">
<path d="M183.456 358C283.72 358 365 314.709 365 261.307C365 207.904 283.72 164.613 183.456 164.613C83.192 164.613 1.91203 207.904 1.91203 261.307C1.91203 314.709 83.192 358 183.456 358Z" fill="#F5F5F5"/>
<path d="M299.762 273.939C326.505 273.939 348.184 261.135 348.184 245.341C348.184 229.547 326.505 216.744 299.762 216.744C273.02 216.744 251.34 229.547 251.34 245.341C251.34 261.135 273.02 273.939 299.762 273.939Z" fill="#E6E6E6"/>
<path d="M104.756 228.368C123.28 239.31 124.035 257.372 105.503 268.314C86.97 279.255 56.1909 278.93 37.6582 267.989C19.1255 257.047 19.1334 239.31 37.6582 228.368C56.1829 217.427 86.2151 217.427 104.756 228.368Z" fill="#E6E6E6"/>
<path d="M255.862 287.327L195.051 251.414C193.984 250.86 192.806 250.572 191.61 250.572C190.414 250.572 189.235 250.86 188.169 251.414L127.357 287.327C125.458 288.449 125.458 290.27 127.357 291.392L155.053 307.747L129.185 323.021C123.932 326.118 115.381 326.118 110.112 323.021L69.4228 298.992C67.1817 297.667 65.942 296.001 65.942 294.31C65.942 292.619 67.1817 290.945 69.4228 289.62L105.479 268.322C105.669 268.22 105.837 268.08 105.972 267.911C106.108 267.741 106.209 267.545 106.269 267.334C106.328 267.124 106.346 266.903 106.32 266.685C106.294 266.468 106.226 266.257 106.118 266.068C106.011 265.878 105.867 265.712 105.696 265.581C105.524 265.449 105.329 265.354 105.12 265.302C104.912 265.25 104.696 265.241 104.484 265.277C104.273 265.313 104.07 265.392 103.889 265.509L67.8493 286.791C64.583 288.725 62.779 291.392 62.779 294.302C62.779 297.212 64.583 299.87 67.8493 301.805L108.539 325.834C111.979 327.648 115.794 328.594 119.664 328.594C123.535 328.594 127.35 327.648 130.79 325.834L158.248 309.625L188.2 327.305C189.267 327.859 190.446 328.147 191.642 328.147C192.837 328.147 194.016 327.859 195.083 327.305L255.894 291.392C257.762 290.27 257.762 288.449 255.862 287.327Z" fill="#E6E6E6"/>
<path d="M325.352 231.912C325.352 231.912 327.561 198.438 326.941 186.098C326.425 176.343 325.129 172.279 324.859 170.076C324.859 170.076 322.515 147.315 322.324 127.895C322.229 118.563 321.386 111.93 316.387 100.842L284.257 108.702C283.606 113.629 281.396 146.388 280.872 175.514C280.419 201.014 281.126 223.336 281.126 223.336V224.678C281.126 226.173 280.808 227.214 279.87 229.604C278.698 232.683 277.015 235.532 274.896 238.025C274.236 238.757 269.65 242.854 269.046 243.716C267.076 246.065 271.16 247.39 274.188 246.967C277.367 246.528 282.342 245.284 283.725 243.301C284.663 241.968 285.37 237.326 286.331 235.985C289.582 231.449 290.917 229.482 290.941 228.051C290.988 225.434 290.106 224.401 289.788 222.922C290.051 219.833 296.575 194.43 296.687 185.431C296.742 181.147 296.456 175.246 296.456 175.246L301.51 145.559C303.465 152.973 306.899 171.376 308.059 178.44C309.466 187.073 313.145 209.233 315.323 222.45C316.157 227.547 316.546 230.124 316.912 232.49L316.999 233.498C317.071 234.782 317.985 248.52 318.478 251.381C319.511 257.388 324.732 256.632 325.566 251.771C326.282 247.642 325.392 234.831 325.368 233.262L325.352 231.912Z" fill="#FFA8A7"/>
<path d="M325.352 231.912C326.83 231.912 325.86 237.773 326.242 241.521C326.647 245.545 327.935 248.487 328.308 251.779C328.809 254.657 328.377 257.623 327.076 260.225C326.051 262.664 320.886 265.916 318.923 262.493C316.96 259.071 316.538 255.112 316.769 251.357C316.999 247.601 316.769 245.081 316.84 242.13C316.912 239.529 315.044 232.888 316.96 232.514L317.047 233.522C317.738 234.928 324.716 235.205 325.415 233.302L325.352 231.912Z" fill="#37474F"/>
<path d="M291.275 231.246C291.728 233.124 291.275 238.277 291.275 238.277C291.275 238.277 290.48 240.058 287.643 241.236L286.371 234.067L291.275 231.246Z" fill="#263238"/>
<path d="M287.627 241.236L281.38 239.139L279.87 233.465L286.896 237.099L287.627 241.236Z" fill="black"/>
<path d="M281.126 224.678V223.336C280.276 223.759 278.408 230.758 275.881 235.53C273.576 239.911 269.007 242.35 267.521 244.26C265.534 246.805 269.396 250.097 275.587 248.739C278.662 248.065 283.319 246.057 284.583 243.935C285.847 241.813 286.268 237.912 287.301 236.351C288.334 234.79 290.79 232.994 291.275 231.221C291.678 229.622 291.678 227.944 291.275 226.344C290.79 224.718 290.361 222.776 289.82 222.954V224.182C289.407 225.043 287.905 226.051 284.782 226.23C283.256 226.303 281.81 226.068 281.126 224.678Z" fill="#37474F"/>
<path d="M283.606 108.28C283.606 108.28 281.484 132.398 280.8 153.753C280.117 175.108 280.729 202.665 280.729 202.665C280.729 202.665 282.882 204.242 287.627 204.461C292.371 204.681 293.985 203.063 293.985 203.063C293.985 203.063 296.885 193.381 297.338 186.569C297.626 182.882 297.626 179.177 297.338 175.49L301.574 146.99C301.574 146.99 306.946 175.051 307.558 178.44C308.17 181.83 313.312 211.818 313.312 211.818C313.312 211.818 315.33 213.72 320.512 213.622C325.097 213.533 326.425 211.85 326.425 211.85C326.425 211.85 327.529 193.463 327.275 185.61C327.06 178.684 325.511 173.173 325.201 168.678C324.891 164.182 324.716 138.601 324.406 128.846C324.096 119.091 323.301 110.718 315.14 98.9802L283.606 108.28Z" fill="#455A64"/>
<path d="M301.606 147.014L298.077 129.13C298.077 129.13 291.934 127.505 289.065 123.652C289.065 123.652 289.86 127.911 296.218 130.634L299.969 148.42L298.665 166.808L301.606 147.014Z" fill="#37474F"/>
<path d="M238.712 103.833C240.976 104.186 243.288 104.011 245.475 103.321C244.514 102.83 243.615 102.221 242.797 101.508C242.422 101.2 242.179 100.754 242.12 100.265C242.06 99.7768 242.189 99.2838 242.479 98.8908C242.773 98.5657 243.504 99.3217 245.157 99.8013C247.271 100.411 248.805 100.541 250.84 101.744C251.607 102.201 252.509 102.362 253.383 102.199C258.342 101.248 269.905 95.6962 275.206 92.8023C276.286 88.2907 278.162 81.6575 280.474 73.3823C282.612 65.7574 286.037 62.4245 291.505 62.5464L290.718 79.105C290.718 79.105 288.112 90.5424 284.885 99.8825C284.321 101.508 282.056 103.402 277.908 104.979C272.535 107.02 266.05 108.946 258.127 111.165C254.917 112.101 251.637 112.767 248.32 113.157C239.944 113.889 236.733 111.531 235.605 109.84C232.394 105.174 234.294 102.931 238.712 103.833Z" fill="#FFA8A7"/>
<path d="M305.595 62.4245L313.24 63.0261C312.582 66.2043 312.769 69.5048 313.781 72.5843C314.792 75.6637 316.593 78.4095 318.994 80.5357L315.585 94.5825C315.696 96.3221 318.509 102.175 321.235 108.467C316.109 115.49 290.965 117.888 282.763 111.718C284.027 105.101 284.973 100.078 285.227 97.5658L284.814 88.4858C274.53 79.861 286.935 66.7166 291.505 62.5383L297.243 62.2782L305.595 62.4245Z" fill="#BA68C8"/>
<path d="M337.789 132.406C337.234 131.964 336.795 131.388 336.509 130.73C336.224 130.072 336.101 129.352 336.152 128.635C336.287 127.326 336.581 125.684 337.114 125.05C337.646 124.416 340.984 119.774 342.462 122.473C344.051 125.415 343.726 126.61 343.726 126.61L337.789 132.406Z" fill="#F28F8F"/>
<path d="M327.49 194.446C323.902 194.324 320.408 193.242 317.357 191.308L277.677 167.865C271.55 164.247 266.551 155.411 266.551 148.168V114.116C266.547 112.977 266.251 111.858 265.691 110.873C265.131 109.887 264.328 109.07 263.363 108.502C262.397 107.934 261.302 107.635 260.188 107.636C259.074 107.637 257.979 107.938 257.015 108.507L243.123 116.734C242.942 116.851 242.74 116.93 242.528 116.966C242.317 117.002 242.1 116.993 241.892 116.941C241.684 116.889 241.488 116.794 241.317 116.662C241.145 116.531 241.002 116.365 240.894 116.175C240.787 115.986 240.718 115.775 240.692 115.558C240.667 115.34 240.684 115.119 240.744 114.909C240.804 114.698 240.904 114.502 241.04 114.332C241.176 114.163 241.344 114.023 241.534 113.921L255.465 105.687C256.913 104.831 258.556 104.381 260.229 104.38C261.901 104.379 263.545 104.828 264.994 105.682C266.443 106.536 267.647 107.765 268.485 109.245C269.324 110.726 269.767 112.406 269.77 114.116V148.168C269.77 154.265 274.141 161.987 279.306 165.052L318.986 188.48C324.064 191.479 328.777 191.999 332.242 189.959C335.707 187.919 337.622 183.456 337.622 177.481V134.008C337.622 126.643 342.224 118.156 348.096 114.685L357.784 108.995C357.965 108.877 358.167 108.798 358.379 108.763C358.59 108.727 358.807 108.736 359.015 108.788C359.223 108.84 359.419 108.935 359.59 109.066C359.762 109.198 359.905 109.364 360.013 109.553C360.12 109.743 360.189 109.953 360.215 110.171C360.24 110.389 360.223 110.609 360.163 110.82C360.103 111.031 360.003 111.227 359.867 111.396C359.731 111.566 359.563 111.706 359.373 111.808L349.686 117.498C344.87 120.343 340.801 127.895 340.801 134V177.473C340.801 184.675 338.322 190.105 333.831 192.764C331.902 193.893 329.712 194.474 327.49 194.446V194.446Z" fill="#37474F"/>
<path d="M258.93 119.083V121.741C258.93 125.993 256.013 131.171 252.405 133.292L228.341 147.51L203.872 133.057V111.385L227.602 100.151C231.377 98.3706 237.353 98.6469 240.961 100.769L252.389 107.524C255.989 109.654 258.93 114.832 258.93 119.083Z" fill="#37474F"/>
<path d="M227.602 100.151C231.377 98.3706 237.353 98.6469 240.961 100.769L252.389 107.524C255.989 109.645 255.846 112.816 252.071 114.604L228.318 125.822L203.84 111.377L227.602 100.151Z" fill="#455A64"/>
<path opacity="0.15" d="M230.63 120.619C231.578 121.252 232.367 122.104 232.933 123.107C233.499 124.11 233.827 125.235 233.888 126.391V144.218L228.325 147.469L203.856 133.016V111.385L210.055 108.459L230.63 120.619Z" fill="black"/>
<path d="M201.766 107.654C202.133 107.479 202.538 107.408 202.941 107.448C203.343 107.488 203.728 107.638 204.055 107.881L228.119 122.099C229.068 122.732 229.858 123.585 230.425 124.59C230.991 125.594 231.317 126.721 231.377 127.879V149.079C231.42 149.491 231.355 149.908 231.187 150.285C231.019 150.663 230.756 150.987 230.423 151.225C229.867 151.542 227.904 152.704 227.356 153.038C226.988 153.212 226.581 153.283 226.177 153.243C225.774 153.203 225.388 153.053 225.059 152.81L200.987 138.592C200.039 137.96 199.25 137.107 198.684 136.105C198.118 135.102 197.791 133.977 197.729 132.821V111.621C197.687 111.208 197.752 110.792 197.918 110.413C198.084 110.035 198.345 109.708 198.675 109.467L201.766 107.654Z" fill="#37474F"/>
<path d="M225.059 123.903L200.987 109.694C199.191 108.629 197.729 109.491 197.729 111.621V132.821C197.791 133.977 198.118 135.102 198.684 136.105C199.25 137.107 200.039 137.96 200.987 138.592L225.059 152.81C226.855 153.875 228.318 153.013 228.318 150.883V129.683C228.256 128.526 227.928 127.4 227.362 126.396C226.796 125.392 226.007 124.538 225.059 123.903V123.903Z" fill="#455A64"/>
<path d="M196.553 148.583V152.249C196.553 153.737 197.054 154.769 197.88 155.257L200.042 156.533C200.56 156.791 201.137 156.9 201.71 156.848C202.284 156.797 202.834 156.587 203.3 156.24L223.168 144.486V130.016L221.006 128.74L201.099 140.495C199.773 141.383 198.671 142.578 197.881 143.983C197.091 145.388 196.636 146.964 196.553 148.583V148.583ZM205.557 144.047C205.633 144.311 205.676 144.584 205.684 144.86C205.627 145.946 205.321 147.003 204.789 147.946C204.257 148.888 203.516 149.688 202.624 150.282C202.377 150.43 202.109 150.54 201.83 150.607C201.76 150.342 201.723 150.069 201.718 149.794C201.776 148.708 202.083 147.651 202.614 146.709C203.146 145.767 203.887 144.966 204.778 144.372C205.025 144.234 205.286 144.125 205.557 144.047V144.047Z" fill="#BA68C8"/>
<path opacity="0.2" d="M199.93 156.452C199.972 156.489 200.017 156.522 200.065 156.549L199.986 156.5L197.896 155.257C197.061 154.785 196.569 153.753 196.569 152.257V148.591C196.621 146.962 197.084 145.374 197.912 143.982L200.073 145.258C199.253 146.654 198.794 148.24 198.738 149.867V153.533C198.68 154.483 198.979 155.419 199.573 156.151C199.68 156.265 199.8 156.366 199.93 156.452V156.452Z" fill="black"/>
<path opacity="0.5" d="M223.168 130.016L203.3 141.771C201.952 142.63 200.841 143.828 200.073 145.25L197.912 143.974C198.679 142.554 199.787 141.357 201.13 140.495L221.038 128.74L223.168 130.016Z" fill="white"/>
<path opacity="0.2" d="M205.684 144.86C205.683 144.566 205.646 144.274 205.573 143.99C206.884 143.624 207.846 144.462 207.846 146.136C207.789 147.221 207.483 148.278 206.953 149.22C206.422 150.162 205.683 150.963 204.794 151.558C203.379 152.371 202.171 151.956 201.838 150.607C202.118 150.544 202.387 150.434 202.632 150.282C203.521 149.686 204.26 148.885 204.79 147.943C205.32 147.001 205.626 145.945 205.684 144.86V144.86Z" fill="black"/>
<path d="M178.203 137.739V141.413C178.203 142.893 178.704 143.933 179.53 144.413L181.692 145.697C182.209 145.949 182.784 146.054 183.355 146C183.925 145.945 184.471 145.734 184.934 145.388L204.802 133.626V119.181L202.64 117.896L182.773 129.651C181.444 130.537 180.338 131.732 179.544 133.137C178.75 134.542 178.291 136.119 178.203 137.739V137.739ZM187.207 133.179C187.279 133.463 187.317 133.755 187.318 134.048C187.261 135.135 186.954 136.192 186.422 137.134C185.891 138.076 185.149 138.876 184.259 139.47C184.007 139.61 183.74 139.719 183.464 139.796C183.388 139.518 183.351 139.23 183.353 138.942C183.41 137.857 183.716 136.8 184.246 135.858C184.776 134.917 185.515 134.115 186.404 133.52C186.655 133.368 186.925 133.253 187.207 133.179V133.179Z" fill="#BA68C8"/>
<path opacity="0.2" d="M181.787 145.754H181.747H181.692L179.53 144.462C178.696 143.982 178.203 142.95 178.203 141.454V137.788C178.211 137.004 178.332 136.227 178.561 135.479C178.8 134.679 179.128 133.91 179.538 133.187L181.7 134.455C181.495 134.817 181.312 135.192 181.151 135.577C180.658 136.669 180.388 137.853 180.357 139.056V142.722C180.289 143.666 180.573 144.601 181.151 145.339C181.339 145.514 181.554 145.654 181.787 145.754V145.754Z" fill="black"/>
<path opacity="0.5" d="M204.826 119.181L184.958 130.935C183.608 131.792 182.497 132.99 181.731 134.414L179.57 133.146C180.324 131.725 181.417 130.522 182.749 129.651L202.617 117.896L204.826 119.181Z" fill="white"/>
<path opacity="0.2" d="M187.31 134.04C187.312 133.75 187.277 133.46 187.207 133.179V133.179C188.51 132.805 189.48 133.65 189.48 135.325C189.423 136.41 189.117 137.466 188.587 138.408C188.057 139.35 187.317 140.151 186.428 140.747C185.006 141.559 183.806 141.145 183.472 139.787C183.753 139.727 184.022 139.617 184.267 139.462C185.155 138.867 185.893 138.066 186.422 137.124C186.951 136.181 187.255 135.125 187.31 134.04V134.04Z" fill="black"/>
<path d="M184.227 124.172C183.962 124.173 183.705 124.082 183.496 123.916C183.287 123.749 183.139 123.516 183.075 123.253L179.896 110.507C179.817 110.193 179.863 109.86 180.024 109.581C180.185 109.302 180.447 109.1 180.754 109.019C181.061 108.939 181.386 108.986 181.659 109.15C181.932 109.315 182.129 109.584 182.208 109.897L185.387 122.652C185.428 122.806 185.437 122.968 185.416 123.127C185.395 123.286 185.342 123.438 185.262 123.576C185.182 123.714 185.076 123.834 184.95 123.929C184.824 124.025 184.681 124.093 184.529 124.131C184.43 124.157 184.329 124.171 184.227 124.172V124.172Z" fill="#E0E0E0"/>
<path d="M175.278 129.488C175.01 129.489 174.75 129.397 174.539 129.228L162.706 119.66C162.575 119.564 162.465 119.441 162.382 119.3C162.299 119.159 162.245 119.002 162.223 118.839C162.201 118.676 162.211 118.51 162.253 118.351C162.296 118.192 162.369 118.044 162.469 117.915C162.569 117.785 162.693 117.678 162.835 117.6C162.976 117.521 163.132 117.473 163.292 117.457C163.452 117.442 163.614 117.46 163.767 117.51C163.921 117.56 164.063 117.642 164.184 117.75L176.018 127.31C176.265 127.511 176.424 127.804 176.462 128.125C176.499 128.446 176.411 128.77 176.216 129.025C176.105 129.17 175.963 129.288 175.8 129.368C175.638 129.449 175.459 129.49 175.278 129.488V129.488Z" fill="#E0E0E0"/>
<path d="M158.971 141.161C158.655 141.173 158.347 141.056 158.115 140.836C157.883 140.615 157.747 140.31 157.735 139.987C157.724 139.663 157.838 139.348 158.053 139.111C158.269 138.874 158.567 138.734 158.884 138.723L172.719 137.625C172.876 137.612 173.033 137.63 173.182 137.68C173.331 137.729 173.469 137.808 173.588 137.913C173.707 138.017 173.805 138.144 173.875 138.288C173.946 138.431 173.988 138.587 173.999 138.747C174.021 139.069 173.918 139.386 173.713 139.631C173.508 139.876 173.216 140.029 172.902 140.056L159.066 141.153L158.971 141.161Z" fill="#E0E0E0"/>
<path d="M348.605 119.14C348.335 116.137 347.9 113.151 347.302 110.198C345.494 103.27 343.084 96.5202 340.102 90.0303C338.774 87.4372 335.778 83.6572 333.657 80.4626C330.653 75.951 328.539 73.4229 326.258 70.3583C321.235 63.6357 319.105 63.2455 313.24 63.0423C312.446 65.1802 310.634 73.9432 316.507 81.0235L329.095 94.5987C329.81 95.7774 337.503 109.231 338.782 114.198C339.004 115.081 338.896 116.017 338.48 116.823C337.475 119.1 336.736 121.49 336.279 123.944C335.906 125.667 334.904 127.033 335.246 127.301C335.668 127.59 336.173 127.724 336.679 127.683C337.185 127.642 337.663 127.427 338.035 127.074C338.934 126.087 339.667 124.956 340.205 123.725C340.441 123.709 340.678 123.743 340.901 123.826C341.123 123.909 341.326 124.038 341.498 124.206C341.669 124.373 341.804 124.575 341.895 124.799C341.985 125.022 342.03 125.263 342.025 125.505C342.096 126.505 341.651 127.895 341.31 129.626C341.246 129.968 341.167 130.358 341.016 131.301C340.885 131.938 340.811 132.585 340.793 133.235C342.382 133.536 344.043 132.545 346.714 129.984C349.122 127.594 349.281 124.456 348.605 119.14Z" fill="#FFA8A7"/>
<path d="M306.962 58.4739C307.01 56.8481 312.175 53.0438 314.79 48.9956C317.174 45.24 320.599 34.9163 312.573 31.6159C312.573 31.6159 314.305 26.6654 311.158 23.7471C308.011 20.8289 303.775 22.6335 303.108 23.8528C302.705 22.3327 301.832 20.9863 300.621 20.0139C299.41 19.0414 297.924 18.4947 296.385 18.4552C294.881 18.3394 293.387 18.7832 292.178 19.7048C290.969 20.6264 290.126 21.9638 289.804 23.4708C288.534 22.9084 287.114 22.8099 285.781 23.1917C284.448 23.5736 283.285 24.4126 282.485 25.568C279.537 29.7219 283.447 33.5262 283.447 33.5262C282.94 33.8763 282.535 34.3607 282.276 34.9276C282.017 35.4946 281.914 36.1228 281.976 36.7453C282.207 38.5011 283.852 38.932 284.043 39.8099C284.08 39.9936 284.057 40.1846 283.978 40.3539C283.899 40.5232 283.768 40.6615 283.606 40.748C283.443 40.8344 283.257 40.8642 283.076 40.8328C282.896 40.8014 282.73 40.7105 282.604 40.574C282.647 40.8032 282.734 41.0215 282.859 41.2164C282.985 41.4112 283.147 41.5788 283.336 41.7095C283.525 41.8401 283.737 41.9313 283.961 41.9778C284.184 42.0243 284.415 42.0251 284.639 41.9803C286.49 41.8746 288.143 39.2978 288.143 39.2978L306.962 58.4739Z" fill="#263238"/>
<path d="M290.114 31.0957C287.73 32.1524 285.481 35.8673 285.513 46.2561C285.513 55.0597 288.183 57.287 289.486 57.9455C290.79 58.6039 293.42 58.2625 295.955 57.8642V62.9285C295.955 62.9285 291.37 68.7488 295.479 71.6427C306.064 69.7487 306.875 62.644 306.875 62.644L307.066 51.6049C307.066 51.6049 308.52 53.1657 311.039 50.8733C313.153 48.9793 313.916 45.7358 312.326 43.9475C310.737 42.1591 308.703 42.0209 306.859 44.0125C306.859 44.0125 303.481 44.2401 298.403 40.9804C293.325 37.7207 291.513 34.4123 290.114 31.0957Z" fill="#FFA8A7"/>
<path d="M296.21 51.7675C296.22 51.9354 296.198 52.1038 296.145 52.2629C296.091 52.422 296.007 52.5686 295.898 52.6942C295.789 52.8198 295.656 52.9219 295.507 52.9944C295.359 53.067 295.198 53.1086 295.034 53.1169C294.779 53.1379 294.524 53.0803 294.301 52.9516C294.079 52.823 293.899 52.6291 293.785 52.3951C293.672 52.161 293.629 51.8974 293.663 51.6384C293.697 51.3793 293.806 51.1365 293.976 50.9414C294.146 50.7463 294.369 50.6077 294.617 50.5436C294.865 50.4795 295.126 50.4927 295.366 50.5816C295.606 50.6705 295.815 50.8309 295.966 51.0423C296.116 51.2537 296.201 51.5062 296.21 51.7675V51.7675Z" fill="#B16668"/>
<path d="M289.669 43.2484C289.668 43.4774 289.6 43.7009 289.475 43.8912C289.351 44.0814 289.174 44.23 288.968 44.3187C288.761 44.4073 288.534 44.432 288.314 44.3897C288.094 44.3475 287.891 44.2401 287.73 44.0809C287.569 43.9217 287.457 43.7177 287.408 43.4941C287.359 43.2706 287.376 43.0373 287.455 42.8232C287.535 42.6091 287.674 42.4236 287.856 42.2897C288.037 42.1557 288.253 42.0793 288.477 42.0697C288.631 42.0665 288.784 42.0945 288.928 42.152C289.071 42.2096 289.202 42.2957 289.313 42.4052C289.424 42.5148 289.512 42.6457 289.574 42.7904C289.635 42.9351 289.667 43.0908 289.669 43.2484V43.2484Z" fill="#263238"/>
<path d="M298.467 43.7849C298.477 43.9528 298.455 44.1212 298.402 44.2803C298.348 44.4394 298.264 44.586 298.155 44.7116C298.045 44.8372 297.913 44.9393 297.764 45.0118C297.616 45.0844 297.455 45.126 297.291 45.1343C296.958 45.1365 296.638 45.0046 296.4 44.7673C296.162 44.5299 296.025 44.2062 296.019 43.8662C296.014 43.7018 296.04 43.538 296.097 43.384C296.154 43.2301 296.239 43.0891 296.349 42.9691C296.459 42.8491 296.591 42.7524 296.738 42.6845C296.884 42.6167 297.042 42.579 297.203 42.5737C297.364 42.5684 297.524 42.5955 297.674 42.6534C297.825 42.7114 297.963 42.7992 298.08 42.9116C298.197 43.0241 298.292 43.1591 298.358 43.3089C298.425 43.4588 298.461 43.6205 298.467 43.7849V43.7849Z" fill="#263238"/>
<path d="M288.875 38.5905L286.451 40.0456C286.537 40.2132 286.657 40.3608 286.801 40.4793C286.946 40.5977 287.113 40.6843 287.292 40.7339C287.471 40.7835 287.658 40.7948 287.841 40.7673C288.025 40.7398 288.201 40.674 288.358 40.574C288.677 40.3745 288.908 40.0573 289.004 39.688C289.1 39.3187 289.054 38.9257 288.875 38.5905V38.5905Z" fill="#263238"/>
<path d="M306.907 42.5818V47.4592C306.601 47.4671 306.297 47.411 306.013 47.2942C305.729 47.1774 305.472 47.0025 305.257 46.7801C305.041 46.5578 304.873 46.2927 304.762 46.0013C304.651 45.7098 304.599 45.3982 304.61 45.0855C304.612 44.4486 304.851 43.8362 305.277 43.3717C305.703 42.9072 306.285 42.625 306.907 42.5818V42.5818Z" fill="#263238"/>
<path d="M292.8 42.086L292.316 49.1094L288.692 48.2396L292.8 42.086Z" fill="#F28F8F"/>
<path d="M295.987 57.8804C298.65 57.5634 304.149 56.0027 305.047 53.7103C304.691 54.8588 304.004 55.8704 303.076 56.6123C301.415 58.0755 295.979 59.5875 295.979 59.5875L295.987 57.8804Z" fill="#F28F8F"/>
<path d="M327.99 3.56304C329.004 3.95897 329.955 4.50689 330.811 5.18882C331.641 5.8091 332.355 6.5774 332.917 7.45679C333.453 8.30273 333.805 9.25624 333.951 10.2531C334.094 11.3172 333.965 12.401 333.577 13.399C333.3 14.1981 332.87 14.933 332.313 15.5613C331.816 16.097 331.246 16.5569 330.621 16.927C330.012 17.2825 329.374 17.5818 328.713 17.8212L326.838 18.5121C326.286 18.716 325.754 18.9718 325.249 19.2762C324.772 19.5213 324.373 19.8988 324.096 20.3655C323.969 20.5834 323.788 20.7629 323.572 20.8858C323.468 20.9442 323.353 20.9782 323.234 20.9852C323.116 20.9922 322.998 20.9722 322.888 20.9264L320.409 19.9753C320.291 19.9308 320.183 19.8625 320.092 19.7745C320 19.6865 319.927 19.5807 319.876 19.4632C319.822 19.3508 319.793 19.227 319.793 19.1015C319.793 18.9759 319.822 18.8521 319.876 18.7397C320.195 17.9576 320.665 17.2496 321.259 16.6587C321.797 16.1409 322.398 15.6956 323.047 15.3337C323.673 14.9897 324.328 14.7014 325.002 14.472C325.67 14.2444 326.29 14.025 326.87 13.7973C327.394 13.6006 327.897 13.35 328.372 13.0495C328.78 12.7848 329.093 12.3909 329.262 11.9277C329.419 11.522 329.476 11.0832 329.429 10.6496C329.382 10.2161 329.232 9.80088 328.992 9.44025C328.393 8.552 327.524 7.89164 326.52 7.56247C325.645 7.2065 324.684 7.13652 323.769 7.36215C322.854 7.58779 322.03 8.09796 321.41 8.82245C321.252 8.99376 321.066 9.13665 320.862 9.24515C320.641 9.31581 320.403 9.29839 320.194 9.19638L317.556 8.18026C317.462 8.14687 317.375 8.09437 317.301 8.02592C317.228 7.95747 317.168 7.87449 317.127 7.78195C317.081 7.68709 317.057 7.58281 317.057 7.47711C317.057 7.37142 317.081 7.26713 317.127 7.17228C317.476 6.34342 318.022 5.61695 318.716 5.05876C319.488 4.40188 320.368 3.88999 321.315 3.54678C322.355 3.17097 323.447 2.96788 324.549 2.94524C325.724 2.92251 326.893 3.13229 327.99 3.56304V3.56304ZM322.332 22.9911C322.448 23.0333 322.554 23.0999 322.643 23.1867C322.732 23.2736 322.802 23.3787 322.848 23.4951C322.897 23.6106 322.923 23.7351 322.923 23.8609C322.923 23.9868 322.897 24.1113 322.848 24.2267L321.768 27.1613C321.727 27.2799 321.661 27.3882 321.576 27.4793C321.492 27.5703 321.389 27.642 321.275 27.6897C321.162 27.7398 321.04 27.7656 320.917 27.7656C320.794 27.7656 320.673 27.7398 320.56 27.6897L317.754 26.6085C317.638 26.5664 317.533 26.4998 317.443 26.4129C317.354 26.3261 317.284 26.221 317.238 26.1045C317.189 25.9891 317.164 25.8646 317.164 25.7387C317.164 25.6129 317.189 25.4884 317.238 25.3729L318.319 22.4384C318.361 22.3195 318.426 22.2107 318.511 22.1184C318.596 22.0262 318.698 21.9525 318.811 21.9019C318.925 21.8536 319.046 21.8287 319.169 21.8287C319.292 21.8287 319.413 21.8536 319.527 21.9019L322.332 22.9911Z" fill="#BA68C8"/>
<path d="M329.365 38.5987C329.448 38.6819 329.514 38.7812 329.559 38.8908C329.604 39.0003 329.627 39.118 329.627 39.2368C329.627 39.3556 329.604 39.4732 329.559 39.5828C329.514 39.6924 329.448 39.7917 329.365 39.8749L327.378 42.0209C327.299 42.1075 327.203 42.1767 327.096 42.2242C326.99 42.2717 326.875 42.2966 326.758 42.2973C326.642 42.3016 326.526 42.2823 326.417 42.2405C326.308 42.1986 326.208 42.135 326.123 42.0534L324.096 40.0619C324.012 39.9804 323.944 39.8822 323.897 39.7732C323.851 39.6642 323.827 39.5467 323.826 39.4278C323.82 39.3085 323.838 39.1891 323.879 39.0773C323.92 38.9654 323.983 38.8633 324.064 38.7775L326.059 36.6396C326.226 36.4723 326.45 36.3785 326.683 36.3785C326.916 36.3785 327.14 36.4723 327.307 36.6396L329.365 38.5987ZM341.286 23.8609C342.025 24.5771 342.659 25.3984 343.169 26.2996C343.661 27.1535 344.002 28.089 344.179 29.0634C344.327 29.9975 344.281 30.9533 344.043 31.8679C343.79 32.7333 343.363 33.5351 342.79 34.2223C342.216 34.9095 341.509 35.467 340.714 35.8592C340.092 36.14 339.433 36.3262 338.759 36.412C338.102 36.4876 337.44 36.5066 336.78 36.4689L334.904 36.3632C334.345 36.3323 333.784 36.3513 333.227 36.4201C332.729 36.4764 332.256 36.6734 331.861 36.9891C331.674 37.1337 331.45 37.2211 331.217 37.2411C331.105 37.2539 330.992 37.2408 330.886 37.2028C330.78 37.1648 330.684 37.1029 330.605 37.0216L328.801 35.2658C328.627 35.0982 328.524 34.8677 328.515 34.6236C328.503 34.5035 328.521 34.3824 328.565 34.2706C328.609 34.1588 328.679 34.0596 328.769 33.9814C329.323 33.4183 329.983 32.9759 330.708 32.6808C331.361 32.4328 332.042 32.2717 332.735 32.2012C333.404 32.1444 334.076 32.1444 334.745 32.2012C335.408 32.2608 336.027 32.3015 336.605 32.3231C337.136 32.3505 337.669 32.3205 338.194 32.2337C338.647 32.1618 339.063 31.9389 339.379 31.5997C339.657 31.3046 339.862 30.945 339.975 30.5516C340.089 30.1581 340.108 29.7423 340.03 29.3398C339.833 28.3426 339.315 27.4415 338.56 26.7792C337.925 26.1442 337.114 25.7253 336.238 25.5798C335.362 25.4343 334.463 25.5693 333.665 25.9663C333.468 26.0546 333.259 26.1069 333.045 26.1208C332.936 26.1141 332.83 26.0847 332.733 26.0344C332.636 25.984 332.55 25.9138 332.48 25.8281L330.557 23.9504C330.419 23.8223 330.333 23.6449 330.319 23.4545C330.314 23.3539 330.33 23.2535 330.365 23.1596C330.401 23.0658 330.455 22.9807 330.525 22.9099C331.127 22.3251 331.857 21.8983 332.655 21.6661C333.562 21.3889 334.508 21.2761 335.453 21.3328C336.492 21.3976 337.515 21.6337 338.48 22.0319C339.514 22.4486 340.456 23.0702 341.254 23.8609H341.286Z" fill="#BA68C8"/>
<g opacity="0.6">
<path opacity="0.6" d="M329.365 38.5987C329.448 38.6819 329.514 38.7812 329.559 38.8908C329.604 39.0003 329.627 39.118 329.627 39.2368C329.627 39.3556 329.604 39.4732 329.559 39.5828C329.514 39.6924 329.448 39.7917 329.365 39.8749L327.378 42.0209C327.299 42.1075 327.203 42.1767 327.096 42.2242C326.99 42.2717 326.875 42.2966 326.758 42.2973C326.642 42.3016 326.526 42.2823 326.417 42.2405C326.308 42.1986 326.208 42.135 326.123 42.0534L324.096 40.0619C324.012 39.9804 323.944 39.8822 323.897 39.7732C323.851 39.6642 323.827 39.5467 323.826 39.4278C323.82 39.3085 323.838 39.1891 323.879 39.0773C323.92 38.9654 323.983 38.8633 324.064 38.7775L326.059 36.6396C326.226 36.4723 326.45 36.3785 326.683 36.3785C326.916 36.3785 327.14 36.4723 327.307 36.6396L329.365 38.5987ZM341.286 23.8609C342.025 24.5771 342.659 25.3984 343.169 26.2996C343.661 27.1535 344.002 28.089 344.179 29.0634C344.327 29.9975 344.281 30.9533 344.043 31.8679C343.79 32.7333 343.363 33.5351 342.79 34.2223C342.216 34.9095 341.509 35.467 340.714 35.8592C340.092 36.14 339.433 36.3262 338.759 36.412C338.102 36.4876 337.44 36.5066 336.78 36.4689L334.904 36.3632C334.345 36.3323 333.784 36.3513 333.227 36.4201C332.729 36.4764 332.256 36.6734 331.861 36.9891C331.674 37.1337 331.45 37.2211 331.217 37.2411C331.105 37.2539 330.992 37.2408 330.886 37.2028C330.78 37.1648 330.684 37.1029 330.605 37.0216L328.801 35.2658C328.627 35.0982 328.524 34.8677 328.515 34.6236C328.503 34.5035 328.521 34.3824 328.565 34.2706C328.609 34.1588 328.679 34.0596 328.769 33.9814C329.323 33.4183 329.983 32.9759 330.708 32.6808C331.361 32.4328 332.042 32.2717 332.735 32.2012C333.404 32.1444 334.076 32.1444 334.745 32.2012C335.408 32.2608 336.027 32.3015 336.605 32.3231C337.136 32.3505 337.669 32.3205 338.194 32.2337C338.647 32.1618 339.063 31.9389 339.379 31.5997C339.657 31.3046 339.862 30.945 339.975 30.5516C340.089 30.1581 340.108 29.7423 340.03 29.3398C339.833 28.3426 339.315 27.4415 338.56 26.7792C337.925 26.1442 337.114 25.7253 336.238 25.5798C335.362 25.4343 334.463 25.5693 333.665 25.9663C333.468 26.0546 333.259 26.1069 333.045 26.1208C332.936 26.1141 332.83 26.0847 332.733 26.0344C332.636 25.984 332.55 25.9138 332.48 25.8281L330.557 23.9504C330.419 23.8223 330.333 23.6449 330.319 23.4545C330.314 23.3539 330.33 23.2535 330.365 23.1596C330.401 23.0658 330.455 22.9807 330.525 22.9099C331.127 22.3251 331.857 21.8983 332.655 21.6661C333.562 21.3889 334.508 21.2761 335.453 21.3328C336.492 21.3976 337.515 21.6337 338.48 22.0319C339.514 22.4486 340.456 23.0702 341.254 23.8609H341.286Z" fill="white"/>
</g>
<path d="M46.5907 242.984C49.11 244.553 52.4557 244.61 55.6107 243.48L57.9948 226.409L46.8689 223.499L46.5907 242.984Z" fill="#FFA8A7"/>
<path d="M64.5433 259.323C64.8214 259.616 64.6545 261.762 64.3128 262.241C63.9711 262.721 62.0558 264.347 58.5273 264.412C55.1657 264.469 52.1696 263.843 50.2941 262.453C48.4186 261.063 47.5205 259.608 47.4331 257.64C47.3457 255.673 47.6636 253.812 46.8371 252.259C46.0106 250.706 45.0172 249.406 44.7629 248.642C44.4644 247.257 44.4644 245.823 44.7629 244.439L64.5433 259.323Z" fill="#263238"/>
<path d="M56.3816 242.764C56.3972 243.506 56.4986 244.242 56.6836 244.959C57.1169 246.497 57.7279 247.976 58.5035 249.365C58.8892 250.09 59.322 250.788 59.7988 251.454C60.7445 252.747 61.9525 253.828 62.9777 255.072C64.0659 256.25 64.7204 257.779 64.8294 259.396C64.8294 262.095 61.9287 262.851 59.7114 263.127C57.302 263.428 54.8574 263.17 52.559 262.371C51.3562 261.978 50.2898 261.238 49.4877 260.24C48.6857 259.243 48.182 258.029 48.0371 256.746C47.9497 255.99 48.0371 255.234 47.9894 254.478C47.7915 252.744 47.1742 251.087 46.1934 249.658C45.6231 248.831 45.1434 247.942 44.7629 247.008C44.1589 245.309 44.8106 243.464 45.3351 241.83C45.7881 240.423 46.1298 238.724 46.6384 238.887C46.6384 239.172 46.6384 239.806 46.6384 239.806C46.7815 240.123 47.1311 240.35 47.2185 240.724C47.301 241.11 47.4153 241.488 47.5603 241.854C47.7767 242.42 48.16 242.903 48.657 243.236C48.7444 242.22 48.8318 241.204 48.9113 240.196C48.8887 240.036 48.9022 239.872 48.9506 239.718C48.999 239.564 49.081 239.423 49.1906 239.307C49.3002 239.19 49.4343 239.1 49.5828 239.044C49.7313 238.988 49.8903 238.968 50.0477 238.985C51.9119 238.636 53.817 238.578 55.6981 238.814C55.8398 238.825 55.978 238.864 56.1049 238.93C56.2317 238.995 56.3446 239.086 56.4372 239.196C56.5342 239.412 56.5647 239.653 56.5246 239.887C56.4263 240.843 56.3785 241.803 56.3816 242.764Z" fill="#BA68C8"/>
<path opacity="0.2" d="M56.3816 242.764C56.3972 243.506 56.4986 244.242 56.6836 244.959C57.1169 246.497 57.7279 247.976 58.5035 249.365C58.8892 250.09 59.322 250.788 59.7988 251.454C60.7445 252.747 61.9525 253.828 62.9777 255.072C64.0659 256.25 64.7204 257.779 64.8294 259.396C64.8294 262.095 61.9287 262.851 59.7114 263.127C57.302 263.428 54.8574 263.17 52.559 262.371C51.3562 261.978 50.2898 261.238 49.4877 260.24C48.6857 259.243 48.182 258.029 48.0371 256.746C47.9497 255.99 48.0371 255.234 47.9894 254.478C47.7915 252.744 47.1742 251.087 46.1934 249.658C45.6231 248.831 45.1434 247.942 44.7629 247.008C44.1589 245.309 44.8106 243.464 45.3351 241.83C45.7881 240.423 46.1298 238.724 46.6384 238.887C46.6384 239.172 46.6384 239.806 46.6384 239.806C46.7815 240.123 47.1311 240.35 47.2185 240.724C47.301 241.11 47.4153 241.488 47.5603 241.854C47.7767 242.42 48.16 242.903 48.657 243.236C48.7444 242.22 48.8318 241.204 48.9113 240.196C48.8887 240.036 48.9022 239.872 48.9506 239.718C48.999 239.564 49.081 239.423 49.1906 239.307C49.3002 239.19 49.4343 239.1 49.5828 239.044C49.7313 238.988 49.8903 238.968 50.0477 238.985C51.9119 238.636 53.817 238.578 55.6981 238.814C55.8398 238.825 55.978 238.864 56.1049 238.93C56.2317 238.995 56.3446 239.086 56.4372 239.196C56.5342 239.412 56.5647 239.653 56.5246 239.887C56.4263 240.843 56.3785 241.803 56.3816 242.764Z" fill="black"/>
<path d="M58.8293 249.95C57.8915 249.138 55.6981 249.016 54.4902 249.081C53.2664 249.123 52.0724 249.477 51.0173 250.113C50.8614 250.21 50.6775 250.25 50.4966 250.224C50.3157 250.199 50.1487 250.111 50.0239 249.975V249.975C49.9505 249.896 49.8949 249.801 49.8611 249.697C49.8273 249.594 49.8161 249.484 49.8282 249.376C49.8403 249.267 49.8755 249.163 49.9312 249.07C49.987 248.976 50.062 248.897 50.151 248.837C51.3189 248.058 52.6755 247.628 54.069 247.593C57.073 247.544 57.8677 248.097 57.8677 248.097C57.8677 248.097 59.171 249.073 58.8293 249.95Z" fill="#455A64"/>
<path d="M60.9353 252.828C59.7432 252.015 57.3273 252.015 56.1193 252.056C54.918 252.114 53.7529 252.495 52.7418 253.161C52.5851 253.261 52.3996 253.301 52.2169 253.276C52.0342 253.251 51.8658 253.161 51.7405 253.023V253.023C51.6661 252.944 51.6099 252.849 51.5759 252.745C51.5419 252.641 51.531 252.53 51.5439 252.421C51.5568 252.312 51.5933 252.208 51.6507 252.115C51.708 252.022 51.7849 251.944 51.8756 251.885C53.0502 251.063 54.4271 250.596 55.8491 250.536C58.8134 250.479 59.5525 251.145 59.5525 251.145C59.8933 251.299 60.1951 251.531 60.4348 251.823C60.6745 252.114 60.8457 252.458 60.9353 252.828V252.828Z" fill="#455A64"/>
<path d="M53.0438 244.642C54.2988 244.489 55.5714 244.668 56.7392 245.163C57.2399 245.496 57.5339 246.349 57.1922 246.544C56.1615 246.055 55.0285 245.835 53.8941 245.902C52.7835 245.953 51.6895 246.197 50.6597 246.626C50.3974 246.723 50.0954 246.87 49.865 247C49.78 247.044 49.6871 247.07 49.5918 247.076C49.4966 247.082 49.4012 247.068 49.3116 247.034C49.222 247.001 49.1402 246.948 49.0713 246.881C49.0024 246.813 48.948 246.732 48.9113 246.642V246.642C48.8614 246.492 48.8643 246.328 48.9194 246.18C48.9745 246.032 49.0784 245.908 49.2133 245.829C50.393 245.159 51.6989 244.755 53.0438 244.642V244.642Z" fill="#455A64"/>
<path d="M77.9501 236.57C79.8892 241.537 82.925 240.009 87.5502 237.147L88.2495 220.19L76.4798 219.077L77.9501 236.57Z" fill="#FFA8A7"/>
<path d="M105.304 248.528C105.519 249.326 105.428 250.178 105.05 250.91C104.684 251.592 101.005 253.462 96.1966 252.861C92.6317 252.412 89.2501 250.991 86.4058 248.747C84.6336 247.398 82.7342 247.065 80.3501 246.788C77.966 246.512 76.1779 245.667 75.709 244.496C75.2401 243.325 75.9553 241.391 75.9553 241.391L105.304 248.528Z" fill="#263238"/>
<path d="M86.5806 232.896C87.0152 232.802 87.4427 232.677 87.8601 232.522C88.0934 232.434 88.35 232.434 88.5833 232.522C88.8853 232.66 88.9807 233.034 89.0522 233.335C89.12 234.071 89.2584 234.797 89.4654 235.505C89.7906 236.093 90.2221 236.611 90.737 237.034C91.8824 238.082 93.1315 239.006 94.4642 239.789C95.998 240.748 97.5079 241.504 99.0894 242.342C100.671 243.179 102.888 243.781 104.144 244.78C105.964 246.195 106.035 249.487 103.81 250.658C101.895 251.674 96.9357 252.617 91.8893 250.845C89.1317 249.877 86.1912 246.65 82.5356 246.154C80.2071 245.845 77.1077 245.471 75.701 243.577C75.1924 242.764 75.6375 240.407 76.0507 237.651C76.4242 235.213 76.7659 231.311 77.5368 231.571L77.5924 232.319L78.5302 233.465C78.7356 233.689 78.9532 233.9 79.1819 234.099C79.4328 234.399 79.698 234.687 79.9766 234.961C80.3544 235.292 80.8241 235.494 81.3196 235.538C81.5546 235.553 81.7889 235.499 81.9952 235.383C82.3925 235.156 82.4481 234.619 82.7899 234.286C83.1595 233.897 83.603 233.59 84.0932 233.384C84.774 233.136 85.4857 232.988 86.2071 232.945C86.3325 232.937 86.4573 232.92 86.5806 232.896V232.896Z" fill="#BA68C8"/>
<path opacity="0.2" d="M86.5806 232.896C87.0152 232.802 87.4427 232.677 87.8601 232.522C88.0934 232.434 88.35 232.434 88.5833 232.522C88.8853 232.66 88.9807 233.034 89.0522 233.335C89.12 234.071 89.2584 234.797 89.4654 235.505C89.7906 236.093 90.2221 236.611 90.737 237.034C91.8824 238.082 93.1315 239.006 94.4642 239.789C95.998 240.748 97.5079 241.504 99.0894 242.342C100.671 243.179 102.888 243.781 104.144 244.78C105.964 246.195 106.035 249.487 103.81 250.658C101.895 251.674 96.9357 252.617 91.8893 250.845C89.1317 249.877 86.1912 246.65 82.5356 246.154C80.2071 245.845 77.1077 245.471 75.701 243.577C75.1924 242.764 75.6375 240.407 76.0507 237.651C76.4242 235.213 76.7659 231.311 77.5368 231.571L77.5924 232.319L78.5302 233.465C78.7356 233.689 78.9532 233.9 79.1819 234.099C79.4328 234.399 79.698 234.687 79.9766 234.961C80.3544 235.292 80.8241 235.494 81.3196 235.538C81.5546 235.553 81.7889 235.499 81.9952 235.383C82.3925 235.156 82.4481 234.619 82.7899 234.286C83.1595 233.897 83.603 233.59 84.0932 233.384C84.774 233.136 85.4857 232.988 86.2071 232.945C86.3325 232.937 86.4573 232.92 86.5806 232.896V232.896Z" fill="black"/>
<path d="M92.3582 238.342C92.2053 238.005 91.9727 237.711 91.6814 237.489C91.39 237.266 91.0491 237.121 90.6893 237.066C89.6403 236.806 87.725 237.505 86.5091 238.424C86.3936 238.51 86.3005 238.623 86.2378 238.754C86.1751 238.885 86.1448 239.03 86.1495 239.176C86.1542 239.322 86.1938 239.465 86.2648 239.591C86.3358 239.718 86.436 239.825 86.5568 239.903V239.903C86.71 239.998 86.8874 240.043 87.066 240.033C87.2447 240.022 87.4161 239.958 87.5581 239.846C88.9027 238.719 90.6271 238.179 92.3582 238.342V238.342Z" fill="#455A64"/>
<path d="M95.545 240.431C95.3307 240.086 95.0385 239.797 94.6928 239.591C94.3471 239.384 93.958 239.266 93.5582 239.245C91.9187 239.228 90.3161 239.743 88.9807 240.716C88.8676 240.796 88.7751 240.903 88.7113 241.028C88.6474 241.152 88.6141 241.291 88.6141 241.431C88.6141 241.572 88.6474 241.711 88.7113 241.835C88.7751 241.96 88.8676 242.067 88.9807 242.147V242.147C89.1294 242.238 89.3021 242.281 89.4754 242.27C89.6487 242.258 89.8144 242.192 89.9502 242.082C90.701 241.393 91.5941 240.887 92.5629 240.601C93.5317 240.316 94.5511 240.258 95.545 240.431V240.431Z" fill="#455A64"/>
<path d="M99.0894 242.334C98.8418 242.011 98.5291 241.746 98.1725 241.558C97.8159 241.37 97.4239 241.263 97.0231 241.244C95.4408 241.257 93.9029 241.781 92.6284 242.74C92.5179 242.824 92.4289 242.934 92.3691 243.061C92.3093 243.188 92.2806 243.328 92.2852 243.468C92.2899 243.609 92.328 243.746 92.396 243.869C92.4641 243.991 92.5602 244.095 92.6761 244.171V244.171C92.8203 244.27 92.9925 244.319 93.1663 244.308C93.34 244.298 93.5056 244.23 93.6377 244.114C94.3471 243.402 95.2099 242.87 96.1566 242.561C97.1034 242.252 98.1079 242.174 99.0894 242.334V242.334Z" fill="#455A64"/>
<path d="M46.2808 197.218C46.6384 189.032 48.3391 184.773 48.5775 182.505C48.5775 182.505 49.2292 137.471 50.302 123.806L89.7198 122.091C90.2999 136.723 90.8244 176.034 90.5145 181.237C90.2204 186.22 88.2416 229.441 88.2416 229.441C82.6786 231.221 76.7421 228.628 76.7421 228.628C76.7421 228.628 73.4361 204.038 72.8957 198.616C72.5121 193.739 72.6347 188.835 73.2613 183.984L70.742 148.973C70.742 148.973 67.6983 176.124 66.1963 186.366C64.4797 198.08 57.073 234.392 57.073 234.392C51.7484 235.749 46.5669 233.4 46.5669 233.4C46.5669 233.4 45.7563 209.078 46.2808 197.218Z" fill="#455A64"/>
<path d="M70.75 149.006L71.497 144.177C73.7937 143.827 79.611 140.113 83.0521 136.861C80.6008 140.655 77.2843 143.782 73.3884 145.973L73.2692 184.001L70.75 149.006Z" fill="#37474F"/>
<path d="M86.9144 98.3706C84.2362 92.1194 79.6269 81.5925 79.6269 81.5925L78.4587 64.5218C80.1639 64.5773 81.8647 64.732 83.5528 64.9851C86.0323 65.3834 89.9661 67.8058 91.7621 72.3743C93.1052 75.7641 100.083 96.444 100.083 96.444L112.242 89.8921C115.357 87.868 116.462 84.5108 118.449 82.5761C120.435 80.6414 122.422 80.3488 124.623 78.7961C126.825 77.2435 127.691 75.9998 128.247 77.5524C128.804 79.105 126.34 81.4868 125.863 82.0802C125.386 82.6736 122.994 83.9417 126.046 84.1043C129.098 84.2669 135.273 81.2267 136.751 80.7064C138.229 80.1862 138.102 81.9827 137.331 83.0963C136.56 84.21 136.481 87.4778 135.193 89.3068C133.826 91.2578 133.087 92.095 130.155 93.2575C127.429 94.3305 121.778 94.6069 118.87 96.3221C115.961 98.0373 108.92 104.549 104.223 107.89C97.9212 112.377 94.3768 112.669 91.9052 109.093C89.4336 105.516 87.8601 100.573 86.9144 98.3706Z" fill="#FFA8A7"/>
<path d="M76.8136 64.156C80.9461 63.8308 85.8177 64.0909 88.5118 66.5946C90.6655 68.6025 91.4761 69.8462 93.8761 76.7883C95.4655 81.4462 98.8669 92.1763 98.8669 92.1763C94.1968 93.254 90.0059 95.8804 86.9462 99.6468L79.1978 81.8363L76.8136 64.156Z" fill="#E0E0E0"/>
<path d="M100.083 96.4034C97.9885 97.1618 96.1867 98.5862 94.941 100.468C94.941 100.468 95.235 97.2163 99.7093 95.2735L100.083 96.4034Z" fill="#F28F8F"/>
<path d="M66.9195 63.3918C64.9621 63.3093 63.0037 63.5285 61.1101 64.0422C57.4783 65.0258 50.9696 66.8954 50.9696 66.8954C48.9033 67.9928 48.1007 71.6508 47.6318 73.7562C46.1378 80.4951 50.0159 95.7043 50.612 101.63C51.208 107.556 49.9206 125.708 49.9206 125.708C54.363 130.976 78.4348 134.471 90.1568 125.708C90.1568 125.708 90.6655 84.0312 89.5131 78.0483C87.7648 68.9927 85.1661 64.6925 76.003 64.1478L66.9195 63.3918Z" fill="#F5F5F5"/>
<path d="M72.0613 41.0373L69.4466 42.5087C69.2658 42.1404 69.2283 41.7157 69.3419 41.3203C69.4555 40.925 69.7117 40.5885 70.0586 40.3789C70.2314 40.2829 70.4214 40.2238 70.6172 40.2051C70.813 40.1863 71.0104 40.2084 71.1976 40.27C71.3848 40.3315 71.5578 40.4312 71.7063 40.5631C71.8547 40.695 71.9755 40.8563 72.0613 41.0373V41.0373Z" fill="#263238"/>
<path d="M83.4336 42.1103L81.0494 40.2326C81.1614 40.0676 81.3051 39.9277 81.4717 39.8214C81.6382 39.7151 81.8242 39.6446 82.0182 39.6142C82.2123 39.5838 82.4104 39.5941 82.6004 39.6445C82.7905 39.6949 82.9685 39.7844 83.1236 39.9074C83.4395 40.1654 83.6473 40.5369 83.7049 40.9461C83.7625 41.3554 83.6655 41.7717 83.4336 42.1103Z" fill="#263238"/>
<path d="M60.0452 32.5264C60.0452 32.5264 57.2319 32.9247 56.1988 35.1195C55.3087 37.0054 55.6266 41.5576 56.8266 46.5C57.5048 49.7067 58.5172 52.8298 59.8465 55.8157C60.3161 56.6617 61.0835 57.2926 61.9923 57.5797L61.8413 51.6781L61.6346 47.6136C61.6346 47.6136 64.2015 44.0206 64.4876 41.1105C64.8532 37.3224 64.0744 35.7698 64.0744 35.7698L60.0452 32.5264Z" fill="#263238"/>
<path d="M64.583 38.2166C64.5935 41.1293 65.7332 43.9188 67.752 45.9731C69.7707 48.0274 72.5037 49.1787 75.3514 49.1744C81.2799 49.1744 85.7303 44.1751 85.6826 38.1028C85.6349 32.0305 81.1845 27.1694 75.248 27.1938C72.4067 27.2153 69.6894 28.3871 67.6906 30.4529C65.6919 32.5187 64.5745 35.3102 64.583 38.2166V38.2166Z" fill="#263238"/>
<path d="M61.8413 46.9227C60.8717 47.7843 60.0849 45.5651 59.2743 44.6953C58.4637 43.8255 55.8014 42.655 54.5061 45.5082C53.2107 48.3615 55.6663 52.4991 57.6849 53.2957C58.2943 53.5317 58.9635 53.551 59.5849 53.3504C60.2063 53.1499 60.7435 52.7412 61.1101 52.1902V65.1965C64.1698 70.8379 69.5658 70.6591 72.4507 70.3421C75.3355 70.025 75.9633 66.9604 73.8573 64.4892V60.4248C75.4602 60.6821 77.0855 60.7611 78.705 60.6605C81.3435 60.2378 82.6786 58.2219 83.4733 55.2711C84.7449 50.5644 85.2614 42.6631 83.4733 33.5343C80.517 31.1932 70.2652 31.5834 64.0585 35.6072C64.5433 43.793 62.7631 46.0691 61.8413 46.9227Z" fill="#FFA8A7"/>
<path d="M83.9978 29.0147C84.3971 27.3201 84.5761 25.579 84.5303 23.8366C84.5303 23.1537 84.3634 22.3246 83.7356 22.0644C83.1077 21.8043 82.4879 22.2758 81.9475 22.6497C79.6587 24.2267 76.8136 24.6738 74.056 24.8283C69.2877 25.0965 62.0002 24.7795 59.5763 30.1202C58.9008 31.5997 58.7816 33.1604 60.1167 34.1847C61.3071 35.0003 62.6682 35.5182 64.0903 35.6966C66.4744 36.1275 68.8586 36.664 71.3063 36.9973C73.754 37.3305 76.6626 37.6557 79.0865 36.8916C81.1289 36.2494 83.2031 35.6966 84.721 34.0383C86.0366 32.5924 86.7789 30.6972 86.8032 28.722C86.8032 28.4456 86.7475 28.0961 86.4773 28.0229C86.3423 28.0056 86.2055 28.0342 86.0879 28.1042L83.9978 29.0147Z" fill="#263238"/>
<path d="M73.8335 60.5142C73.8335 60.5142 67.9367 59.3193 65.8863 58.2056C64.6718 57.562 63.6749 56.5593 63.0254 55.328C63.3274 56.558 63.8679 57.7135 64.6148 58.7258C66.1327 60.693 73.8176 62.1156 73.8176 62.1156L73.8335 60.5142Z" fill="#F28F8F"/>
<path d="M72.6493 45.0286C72.6415 45.2952 72.5571 45.5536 72.4066 45.7714C72.2561 45.9893 72.0462 46.1569 71.8031 46.2535C71.56 46.35 71.2945 46.3712 71.0397 46.3143C70.785 46.2574 70.5522 46.125 70.3706 45.9336C70.1889 45.7423 70.0664 45.5004 70.0183 45.2382C69.9703 44.9761 69.9988 44.7052 70.1003 44.4595C70.2018 44.2138 70.3718 44.0042 70.5891 43.8567C70.8064 43.7093 71.0614 43.6306 71.3222 43.6304C71.6791 43.6369 72.019 43.7875 72.2677 44.0495C72.5164 44.3115 72.6536 44.6635 72.6493 45.0286V45.0286Z" fill="#263238"/>
<path d="M74.5566 54.4175C74.563 54.7611 74.4362 55.0933 74.204 55.3416C73.9717 55.5899 73.6528 55.734 73.3169 55.7425C72.9789 55.7361 72.6572 55.5932 72.4219 55.3449C72.1867 55.0967 72.057 54.7633 72.0612 54.4175C72.0581 54.2478 72.0877 54.0791 72.1482 53.921C72.2088 53.763 72.2993 53.6187 72.4144 53.4964C72.5295 53.3741 72.6671 53.2762 72.8192 53.2083C72.9713 53.1404 73.1351 53.1038 73.301 53.1006C73.6376 53.1071 73.9581 53.2489 74.1932 53.4954C74.4282 53.7419 74.5588 54.0732 74.5566 54.4175V54.4175Z" fill="#B16668"/>
<path d="M70.9804 40.7609L68.2466 42.5249C68.0211 42.1411 67.9497 41.6827 68.0475 41.2462C68.1453 40.8097 68.4047 40.4289 68.7711 40.1838C68.9524 40.0701 69.1541 39.9948 69.3644 39.9624C69.5746 39.9299 69.7891 39.9409 69.9951 39.9947C70.2011 40.0485 70.3944 40.144 70.5637 40.2757C70.7329 40.4073 70.8746 40.5723 70.9804 40.7609Z" fill="#263238"/>
<path d="M80.6282 39.0376L83.5051 40.3545C83.4275 40.5477 83.3124 40.7227 83.1668 40.8691C83.0212 41.0155 82.848 41.1301 82.6579 41.2061C82.4677 41.2821 82.2644 41.3178 82.0604 41.3112C81.8563 41.3045 81.6557 41.2556 81.4706 41.1674C81.095 40.9847 80.8001 40.6646 80.6441 40.2702C80.4882 39.8759 80.4825 39.436 80.6282 39.0376V39.0376Z" fill="#263238"/>
<path d="M82.1461 44.6222C82.1368 44.8784 82.0541 45.1261 81.9083 45.3347C81.7625 45.5432 81.56 45.7034 81.326 45.7952C81.092 45.8871 80.8368 45.9066 80.592 45.8514C80.3472 45.7962 80.1237 45.6687 79.9492 45.4846C79.7746 45.3006 79.6568 45.0682 79.6103 44.8163C79.5638 44.5643 79.5906 44.304 79.6875 44.0675C79.7844 43.8311 79.947 43.6289 80.1552 43.4862C80.3635 43.3435 80.6081 43.2664 80.8587 43.2646C81.2051 43.2711 81.5349 43.4174 81.7762 43.6718C82.0174 43.9262 82.1504 44.2678 82.1461 44.6222V44.6222Z" fill="#263238"/>
<path d="M75.6454 42.3298L76.1222 51.3692L80.3104 50.2311L75.6454 42.3298Z" fill="#F28F8F"/>
<path d="M1.44315 79.5603C2.818 80.3162 8.42072 84.3482 11.4645 84.6977C12.7519 84.8441 13.1016 84.6327 13.0539 84.2913C12.9903 83.8198 12.1718 83.1126 11.9731 82.7305C11.6314 82.064 9.58895 79.3001 10.3837 77.8532C11.1784 76.4062 11.8698 77.7882 13.7612 79.6822C15.6526 81.5762 17.5917 82.2347 19.2526 84.4376C20.9136 86.6405 21.4699 90.1278 24.2196 92.6559L35.1707 100.305C35.1707 100.305 40.2728 76.0892 42.5139 73.236C44.898 70.2364 55.1259 76.772 52.9802 86.3073C50.8345 95.8425 45.947 112.393 42.5456 115.636C40.3522 117.742 35.735 115.758 29.9733 110.515C25.4196 106.369 19.1811 100.151 16.5427 97.9479C13.9042 95.7449 8.42072 94.5581 5.90148 93.0705C3.19152 91.4447 2.59548 90.4936 1.55441 88.3395C0.576914 86.3154 1.01401 83.0719 0.433866 81.8364C-0.146273 80.6008 0.044458 78.8043 1.44315 79.5603Z" fill="#FFA8A7"/>
<path d="M50.9696 66.8954C54.4822 69.139 54.6571 72.4068 54.8319 76.1461C54.8816 80.5232 54.2045 84.8771 52.8292 89.0223C51.3431 93.7289 48.9828 102.321 48.9828 102.321C48.9828 102.321 39.8118 102.541 35.0912 98.3706C35.0912 98.3706 37.2449 89.1036 38.7628 82.1127C40.2807 75.1219 42.1244 67.6839 50.9696 66.8954Z" fill="#E0E0E0"/>
<path d="M35.131 100.322C37.6343 101.744 39.1045 104.801 39.5575 106.012C39.4491 104.601 39.0152 103.238 38.2912 102.032C37.5673 100.827 36.5741 99.8142 35.3932 99.0778L35.131 100.322Z" fill="#F28F8F"/>
<path d="M130.274 276.012L191.61 312.234V325.582L130.274 289.359V276.012Z" fill="#BA68C8"/>
<path opacity="0.35" d="M130.274 276.012L191.61 312.234V325.582L130.274 289.359V276.012Z" fill="black"/>
<path d="M252.946 276.012L191.61 312.234V325.582L252.946 289.359V276.012Z" fill="#BA68C8"/>
<path opacity="0.2" d="M252.946 276.012L191.61 312.234V325.582L252.946 289.359V276.012Z" fill="black"/>
<path d="M252.946 276.012L191.61 239.797L130.274 276.012L191.61 312.234L252.946 276.012Z" fill="#BA68C8"/>
<path opacity="0.15" d="M252.946 276.012L191.61 239.797L130.274 276.012L191.61 312.234L252.946 276.012Z" fill="black"/>
<path opacity="0.1" d="M191.61 312.234V308.422L136.727 276.012H130.274L191.61 312.234Z" fill="black"/>
<path opacity="0.1" d="M191.61 239.797V243.61L246.493 276.012H252.946L191.61 239.797Z" fill="black"/>
<path d="M252.946 276.012H246.493L191.61 308.422V312.234L252.946 276.012Z" fill="#BA68C8"/>
<path d="M191.61 239.797V243.61L136.727 276.012H130.274L191.61 239.797Z" fill="#BA68C8"/>
<path d="M191.832 260.29L218.185 275.849C220.156 277.02 220.156 278.906 218.185 280.068L198.532 291.709C197.424 292.287 196.199 292.589 194.955 292.589C193.712 292.589 192.486 292.287 191.379 291.709L165.027 276.15C163.056 274.979 163.056 273.093 165.027 271.931L184.688 260.29C185.794 259.713 187.018 259.412 188.26 259.412C189.502 259.412 190.726 259.713 191.832 260.29V260.29Z" fill="#37474F"/>
<path d="M198.532 291.709L217.533 280.483L191.832 265.306C190.723 264.734 189.498 264.436 188.256 264.436C187.014 264.436 185.789 264.734 184.68 265.306L165.678 276.548L191.379 291.709C192.486 292.287 193.712 292.589 194.955 292.589C196.199 292.589 197.424 292.287 198.532 291.709V291.709Z" fill="#455A64"/>
<path d="M175.914 276.036L187.445 269.232C187.66 269.122 187.897 269.065 188.137 269.065C188.377 269.065 188.614 269.122 188.828 269.232L190.243 270.045C190.624 270.265 190.624 270.63 190.243 270.858L178.712 277.662C178.498 277.772 178.263 277.829 178.024 277.829C177.785 277.829 177.55 277.772 177.337 277.662L175.922 276.849C175.84 276.82 175.768 276.766 175.717 276.694C175.665 276.621 175.638 276.535 175.637 276.445C175.636 276.356 175.662 276.269 175.712 276.196C175.761 276.122 175.832 276.067 175.914 276.036V276.036Z" fill="#263238"/>
<path d="M193.136 286.222L204.667 279.418C204.88 279.308 205.116 279.25 205.354 279.25C205.593 279.25 205.829 279.308 206.042 279.418L207.464 280.231C207.846 280.45 207.846 280.816 207.464 281.044L195.933 287.847C195.72 287.957 195.484 288.015 195.246 288.015C195.007 288.015 194.771 287.957 194.558 287.847L193.144 287.035C193.061 287.006 192.989 286.952 192.938 286.879C192.887 286.807 192.859 286.72 192.858 286.631C192.857 286.542 192.883 286.454 192.933 286.381C192.983 286.308 193.054 286.252 193.136 286.222V286.222Z" fill="#263238"/>
<path d="M164.963 302.374C164.898 301.14 164.549 299.939 163.944 298.87C163.339 297.801 162.496 296.893 161.482 296.22C161.132 295.958 160.719 295.798 160.287 295.755C159.855 295.712 159.42 295.788 159.027 295.976L157.525 296.871C157.171 297.126 156.89 297.472 156.712 297.875C156.533 298.278 156.462 298.723 156.507 299.163C156.573 300.397 156.922 301.597 157.525 302.668C158.128 303.738 158.969 304.648 159.98 305.325C160.332 305.586 160.746 305.747 161.18 305.79C161.613 305.833 162.049 305.756 162.444 305.568L163.938 304.65C164.289 304.396 164.569 304.052 164.749 303.653C164.929 303.253 165.003 302.812 164.963 302.374V302.374Z" fill="#BA68C8"/>
<path opacity="0.1" d="M159.98 297.139C160.994 297.811 161.837 298.719 162.442 299.789C163.047 300.858 163.396 302.059 163.461 303.292C163.461 305.56 161.872 306.479 159.98 305.349C158.969 304.672 158.128 303.762 157.525 302.692C156.922 301.622 156.573 300.421 156.507 299.187C156.507 296.927 158.065 296.009 159.98 297.139Z" fill="black"/>
<path d="M119.664 323.103C115.787 323.172 111.956 322.223 108.539 320.347L67.8493 296.318C64.583 294.383 62.779 291.717 62.779 288.807C62.779 285.896 64.583 283.238 67.8493 281.304L114.992 253.462C120.157 250.414 124.528 242.683 124.528 236.578V83.9743C124.528 83.5431 124.696 83.1296 124.994 82.8247C125.292 82.5198 125.696 82.3485 126.118 82.3485C126.539 82.3485 126.943 82.5198 127.241 82.8247C127.54 83.1296 127.707 83.5431 127.707 83.9743V236.578C127.707 243.943 122.827 252.6 116.581 256.283L69.4387 284.124C67.1976 285.449 65.9579 287.108 65.9579 288.807C65.9579 290.506 67.1976 292.172 69.4387 293.497L110.128 317.526C115.381 320.631 123.932 320.631 129.201 317.526L159.201 299.821C159.382 299.704 159.585 299.625 159.796 299.589C160.008 299.554 160.224 299.562 160.432 299.614C160.64 299.666 160.836 299.761 161.008 299.893C161.179 300.024 161.323 300.19 161.43 300.38C161.537 300.57 161.606 300.78 161.632 300.997C161.658 301.215 161.64 301.436 161.581 301.646C161.521 301.857 161.42 302.053 161.284 302.223C161.149 302.392 160.981 302.532 160.791 302.634L130.79 320.347C127.374 322.225 123.543 323.174 119.664 323.103V323.103Z" fill="#37474F"/>
<path d="M48.2676 25.6168C48.244 25.5066 48.2432 25.3926 48.2651 25.282C48.287 25.1714 48.3311 25.0668 48.3947 24.9746C48.4546 24.8782 48.5337 24.7958 48.6268 24.7328C48.7199 24.6698 48.825 24.6275 48.9351 24.6088L52.7974 23.8447C52.9064 23.8194 53.0193 23.818 53.1289 23.8404C53.2384 23.8628 53.3421 23.9086 53.4332 23.9747C53.6178 24.1047 53.746 24.3029 53.7908 24.5275L54.3869 27.6978C54.4093 27.8086 54.4088 27.9229 54.3855 28.0335C54.3623 28.144 54.3167 28.2484 54.2518 28.34C54.1935 28.437 54.1161 28.5204 54.0243 28.5848C53.9326 28.6492 53.8287 28.6932 53.7193 28.7139L49.8491 29.4699C49.7413 29.494 49.6299 29.4948 49.5218 29.4724C49.4137 29.45 49.3113 29.4049 49.2212 29.3398C49.127 29.2786 49.0465 29.1977 48.9848 29.1024C48.9232 29.0072 48.8819 28.8997 48.8636 28.7871L48.2676 25.6168ZM45.041 8.49729C45.0191 8.3857 45.019 8.27076 45.0408 8.15912C45.0625 8.04749 45.1057 7.94137 45.1677 7.84689C45.2298 7.75241 45.3096 7.67144 45.4024 7.60867C45.4952 7.5459 45.5993 7.50257 45.7086 7.48118L49.5789 6.71706C49.6871 6.69415 49.7989 6.69461 49.907 6.7184C50.0151 6.7422 50.1172 6.78881 50.2067 6.85525C50.3 6.91564 50.38 6.99525 50.4416 7.08903C50.5032 7.1828 50.5449 7.28868 50.5643 7.39989L53.0994 20.9508C53.1218 21.0616 53.1214 21.1759 53.0981 21.2865C53.0749 21.397 53.0293 21.5014 52.9643 21.593C52.9053 21.6884 52.8275 21.7703 52.7358 21.8333C52.6441 21.8962 52.5406 21.939 52.4319 21.9588L48.5616 22.7229C48.4533 22.7458 48.3416 22.7454 48.2335 22.7216C48.1253 22.6978 48.0233 22.6511 47.9338 22.5847C47.8405 22.5243 47.7605 22.4447 47.6989 22.3509C47.6373 22.2572 47.5955 22.1513 47.5762 22.0401L45.041 8.49729Z" fill="#BA68C8"/>
<path d="M41.8145 38.8832C41.7402 38.7989 41.6829 38.7005 41.6459 38.5936C41.6088 38.4867 41.5928 38.3733 41.5987 38.26C41.6046 38.1467 41.6323 38.0357 41.6803 37.9334C41.7282 37.8311 41.7954 37.7395 41.8781 37.6638L44.8106 34.9732C44.8924 34.8961 44.9892 34.8374 45.0946 34.801C45.2 34.7646 45.3117 34.7513 45.4225 34.7618C45.5327 34.7642 45.6411 34.7901 45.741 34.8376C45.8409 34.8852 45.93 34.9535 46.0026 35.0382L48.1086 37.4769C48.1829 37.5611 48.2403 37.6595 48.2773 37.7664C48.3143 37.8734 48.3304 37.9868 48.3244 38.1001C48.3185 38.2133 48.2908 38.3243 48.2429 38.4266C48.1949 38.5289 48.1277 38.6206 48.0451 38.6962L45.1523 41.3544C45.0705 41.4314 44.9737 41.4901 44.8683 41.5265C44.7629 41.5629 44.6512 41.5763 44.5404 41.5657C44.4302 41.5633 44.3218 41.5375 44.2219 41.4899C44.122 41.4423 44.0329 41.374 43.9602 41.2893L41.8145 38.8832ZM30.4422 25.8769C30.2926 25.7054 30.2155 25.4804 30.2276 25.251C30.231 25.1377 30.2575 25.0264 30.3054 24.9242C30.3533 24.822 30.4215 24.7312 30.5058 24.6576L33.4383 21.9669C33.5194 21.8884 33.6159 21.8282 33.7213 21.7904C33.8268 21.7526 33.9388 21.738 34.0502 21.7474C34.1609 21.7509 34.2697 21.778 34.3697 21.8269C34.4696 21.8759 34.5584 21.9458 34.6303 22.0319L43.6265 32.3231C43.7018 32.4069 43.7591 32.5058 43.7947 32.6137C43.8303 32.7215 43.8434 32.8358 43.8331 32.9491C43.8307 33.0617 43.8055 33.1727 43.759 33.2748C43.7124 33.377 43.6457 33.4681 43.5629 33.5425L40.6224 36.2332C40.5415 36.3092 40.4461 36.3672 40.3421 36.4036C40.2382 36.44 40.128 36.4539 40.0185 36.4445C39.907 36.4432 39.797 36.4179 39.6957 36.3703C39.5944 36.3227 39.504 36.2538 39.4304 36.1681L30.4422 25.8769Z" fill="#BA68C8"/>
<g opacity="0.6">
<path opacity="0.6" d="M41.8145 38.8832C41.7402 38.7989 41.6829 38.7005 41.6459 38.5936C41.6088 38.4867 41.5928 38.3733 41.5987 38.26C41.6046 38.1467 41.6323 38.0357 41.6803 37.9334C41.7282 37.8311 41.7954 37.7395 41.8781 37.6638L44.8106 34.9732C44.8924 34.8961 44.9892 34.8374 45.0946 34.801C45.2 34.7646 45.3117 34.7513 45.4225 34.7618C45.5327 34.7642 45.6411 34.7901 45.741 34.8376C45.8409 34.8852 45.93 34.9535 46.0026 35.0382L48.1086 37.4769C48.1829 37.5611 48.2403 37.6595 48.2773 37.7664C48.3143 37.8734 48.3304 37.9868 48.3244 38.1001C48.3185 38.2133 48.2908 38.3243 48.2429 38.4266C48.1949 38.5289 48.1277 38.6206 48.0451 38.6962L45.1523 41.3544C45.0705 41.4314 44.9737 41.4901 44.8683 41.5265C44.7629 41.5629 44.6512 41.5763 44.5404 41.5657C44.4302 41.5633 44.3218 41.5375 44.2219 41.4899C44.122 41.4423 44.0329 41.374 43.9602 41.2893L41.8145 38.8832ZM30.4422 25.8769C30.2926 25.7054 30.2155 25.4804 30.2276 25.251C30.231 25.1377 30.2575 25.0264 30.3054 24.9242C30.3533 24.822 30.4215 24.7312 30.5058 24.6576L33.4383 21.9669C33.5194 21.8884 33.6159 21.8282 33.7213 21.7904C33.8268 21.7526 33.9388 21.738 34.0502 21.7474C34.1609 21.7509 34.2697 21.778 34.3697 21.8269C34.4696 21.8759 34.5584 21.9458 34.6303 22.0319L43.6265 32.3231C43.7018 32.4069 43.7591 32.5058 43.7947 32.6137C43.8303 32.7215 43.8434 32.8358 43.8331 32.9491C43.8307 33.0617 43.8055 33.1727 43.759 33.2748C43.7124 33.377 43.6457 33.4681 43.5629 33.5425L40.6224 36.2332C40.5415 36.3092 40.4461 36.3672 40.3421 36.4036C40.2382 36.44 40.128 36.4539 40.0185 36.4445C39.907 36.4432 39.797 36.4179 39.6957 36.3703C39.5944 36.3227 39.504 36.2538 39.4304 36.1681L30.4422 25.8769Z" fill="white"/>
</g>
<path d="M117.471 0.978041C118.832 0.890799 120.178 1.30938 121.262 2.15673C121.726 2.58877 122.088 3.12243 122.322 3.71784C122.556 4.31326 122.655 4.95504 122.613 5.59526C122.653 6.23888 122.553 6.88364 122.319 7.48265C122.086 8.08166 121.724 8.61988 121.262 9.05818C120.186 9.92338 118.838 10.357 117.471 10.2775H114.292V14.8704C114.294 14.9444 114.281 15.018 114.254 15.0865C114.226 15.1551 114.185 15.2171 114.133 15.2687C114.084 15.3204 114.024 15.3614 113.959 15.3894C113.893 15.4173 113.823 15.4315 113.752 15.4313H112.123C112.05 15.4323 111.979 15.4186 111.912 15.3908C111.845 15.363 111.784 15.3217 111.733 15.2694C111.681 15.2171 111.641 15.1548 111.614 15.0863C111.587 15.0177 111.573 14.9443 111.574 14.8704V1.55519C111.574 1.48191 111.589 1.40936 111.616 1.34176C111.644 1.27416 111.684 1.21286 111.735 1.16143C111.786 1.10999 111.847 1.06945 111.913 1.04215C111.98 1.01485 112.051 1.00135 112.123 1.00243L117.471 0.978041ZM114.292 7.70065H117.415C118.059 7.73472 118.697 7.57351 119.251 7.23731C119.494 7.05079 119.685 6.80263 119.804 6.51744C119.924 6.23224 119.969 5.91994 119.935 5.61152C119.973 5.30277 119.93 4.98905 119.81 4.70309C119.69 4.41713 119.497 4.1694 119.251 3.98574C118.692 3.66583 118.056 3.51369 117.415 3.54678H114.292V7.70065Z" fill="#455A64"/>
<path d="M124.433 7.3511C124.504 7.02243 124.63 6.70888 124.806 6.4244C125.015 6.06916 125.284 5.75524 125.601 5.4977C125.996 5.1859 126.439 4.94409 126.912 4.78236C127.494 4.58664 128.104 4.49319 128.716 4.50598C129.344 4.49586 129.969 4.58918 130.568 4.78236C131.091 4.95265 131.575 5.22913 131.99 5.59525C132.394 5.9661 132.707 6.42818 132.904 6.94465C133.129 7.54074 133.24 8.17548 133.23 8.8143V14.8703C133.231 14.9449 133.216 15.0187 133.187 15.0872C133.158 15.1557 133.116 15.2175 133.063 15.2687C133.014 15.3208 132.954 15.362 132.889 15.39C132.823 15.4179 132.753 15.432 132.682 15.4312H131.156C131.084 15.4323 131.012 15.4186 130.945 15.3908C130.878 15.363 130.817 15.3217 130.766 15.2694C130.715 15.2171 130.674 15.1548 130.647 15.0863C130.62 15.0177 130.607 14.9443 130.608 14.8703V14.1956C130.289 14.63 129.871 14.9787 129.392 15.2118C128.759 15.5171 128.064 15.6621 127.365 15.6345C126.826 15.6461 126.289 15.5664 125.776 15.3987C125.35 15.2617 124.958 15.0346 124.623 14.7321C124.318 14.4455 124.074 14.0966 123.908 13.7079C123.74 13.3019 123.656 12.8645 123.662 12.4235C123.642 11.999 123.721 11.5756 123.892 11.1884C124.063 10.8011 124.322 10.4611 124.647 10.1962C125.444 9.6005 126.377 9.22529 127.357 9.10694L130.639 8.52979C130.66 8.29962 130.621 8.06803 130.526 7.85828C130.431 7.64852 130.284 7.468 130.099 7.33484C129.689 7.09273 129.221 6.97172 128.748 6.98529C128.476 6.97116 128.204 7.02122 127.953 7.13162C127.755 7.23352 127.573 7.36502 127.413 7.5218C127.314 7.61526 127.201 7.69209 127.079 7.74941C126.973 7.79206 126.86 7.81411 126.745 7.81444H124.87C124.744 7.81911 124.621 7.77233 124.528 7.68438C124.482 7.64434 124.449 7.59148 124.432 7.53228C124.415 7.47309 124.415 7.41012 124.433 7.3511V7.3511ZM127.802 13.1714C128.216 13.1779 128.627 13.1119 129.018 12.9763C129.348 12.86 129.652 12.6807 129.916 12.4479C130.146 12.2437 130.33 11.9914 130.457 11.7082C130.574 11.4537 130.636 11.1765 130.639 10.8953V10.6514L127.898 11.1392C127.478 11.1906 127.074 11.3348 126.714 11.5619C126.596 11.6469 126.501 11.7605 126.437 11.8925C126.373 12.0245 126.343 12.1707 126.348 12.3179C126.347 12.4581 126.388 12.5953 126.466 12.7104C126.545 12.8255 126.656 12.9127 126.785 12.96C127.106 13.1027 127.453 13.1747 127.802 13.1714V13.1714Z" fill="#455A64"/>
<path d="M140.518 17.4879C140.811 17.4868 141.103 17.443 141.384 17.3578C141.673 17.2707 141.943 17.1271 142.179 16.9351C142.422 16.7337 142.625 16.4851 142.775 16.2035C142.933 15.8808 143.012 15.5238 143.005 15.163V14.3989C142.876 14.5433 142.735 14.6765 142.584 14.7972C142.388 14.9575 142.175 15.0939 141.948 15.2036C141.671 15.3372 141.38 15.4407 141.082 15.5125C140.714 15.5976 140.338 15.6385 139.961 15.6345C139.333 15.645 138.711 15.5088 138.142 15.2362C137.611 14.9803 137.137 14.615 136.751 14.1631C136.36 13.7085 136.053 13.1852 135.845 12.6187C135.621 12.0346 135.495 11.4164 135.471 10.7896C135.471 10.5864 135.471 10.3426 135.471 10.0743C135.471 9.80605 135.471 9.55405 135.471 9.35083C135.495 8.72409 135.621 8.10584 135.845 7.52182C136.055 6.95621 136.362 6.43327 136.751 5.97733C137.135 5.52637 137.606 5.16112 138.134 4.90431C138.703 4.63173 139.325 4.4955 139.953 4.506C140.33 4.50195 140.706 4.54287 141.074 4.62793C141.373 4.69976 141.663 4.80329 141.94 4.93683C142.167 5.04658 142.38 5.18298 142.576 5.34327C142.727 5.46394 142.868 5.59717 142.997 5.74159V5.27011C142.999 5.12338 143.057 4.98312 143.157 4.8786C143.258 4.77408 143.394 4.7134 143.538 4.70922H145.071C145.215 4.71522 145.351 4.77624 145.453 4.88015C145.554 4.98407 145.614 5.12328 145.62 5.27011V14.9354C145.666 15.626 145.568 16.3189 145.333 16.9678C145.097 17.6167 144.729 18.2069 144.253 18.6991C143.21 19.5913 141.875 20.0446 140.518 19.9672C139.872 19.9721 139.228 19.8761 138.61 19.6827C138.068 19.5224 137.556 19.2725 137.093 18.9429C136.686 18.6638 136.335 18.3079 136.059 17.8943C135.816 17.5364 135.67 17.1181 135.638 16.6831C135.632 16.6105 135.642 16.5373 135.668 16.4695C135.694 16.4017 135.736 16.3412 135.789 16.2929C135.894 16.1894 136.033 16.1312 136.179 16.1303H137.553C137.643 16.1284 137.732 16.1447 137.815 16.1782C137.898 16.2117 137.974 16.2617 138.038 16.3254C138.173 16.4555 138.285 16.5774 138.38 16.6831C138.569 16.932 138.815 17.1301 139.095 17.2603C139.548 17.4408 140.033 17.5185 140.518 17.4879V17.4879ZM138.134 9.49715C138.094 9.88084 138.094 10.2678 138.134 10.6515C138.139 11.3759 138.425 12.0686 138.928 12.578C139.397 12.9738 139.99 13.1818 140.597 13.1633C141.205 13.1814 141.797 12.9669 142.258 12.5618C142.495 12.3456 142.687 12.0833 142.824 11.7902C142.96 11.4971 143.038 11.179 143.053 10.8547C143.082 10.5848 143.095 10.3133 143.093 10.0418C143.095 9.77026 143.082 9.49883 143.053 9.2289C143.02 8.59497 142.747 7.99915 142.291 7.56805C141.836 7.13696 141.234 6.90458 140.613 6.92028C140.006 6.90176 139.413 7.10978 138.944 7.50556C138.684 7.76413 138.479 8.07397 138.339 8.4163C138.2 8.75864 138.13 9.12635 138.134 9.49715V9.49715Z" fill="#455A64"/>
<path d="M147.885 10.0743C147.881 9.33321 147.999 8.59678 148.234 7.89575C148.456 7.24033 148.804 6.63753 149.26 6.12365C149.7 5.616 150.242 5.21123 150.849 4.93682C151.496 4.65533 152.192 4.51024 152.895 4.51024C153.599 4.51024 154.295 4.65533 154.942 4.93682C155.541 5.19955 156.082 5.58396 156.531 6.06674C156.967 6.55427 157.307 7.12274 157.533 7.7413C157.765 8.38386 157.884 9.06387 157.882 9.74914V10.6758C157.885 10.7488 157.872 10.8214 157.845 10.8888C157.817 10.9562 157.776 11.0166 157.723 11.066C157.675 11.1204 157.616 11.1637 157.55 11.1931C157.485 11.2226 157.414 11.2374 157.342 11.2367H150.611C150.608 11.5196 150.673 11.7989 150.801 12.0496C150.927 12.2898 151.103 12.4981 151.318 12.6593C151.542 12.8302 151.795 12.957 152.065 13.0332C152.347 13.1152 152.638 13.1563 152.931 13.1552C153.283 13.1649 153.634 13.1182 153.972 13.017C154.21 12.9422 154.436 12.8298 154.64 12.6837C154.753 12.5937 154.875 12.5173 155.005 12.4561C155.127 12.4092 155.257 12.3872 155.387 12.391H156.976C157.122 12.3919 157.261 12.4501 157.366 12.5536C157.421 12.6018 157.464 12.6636 157.491 12.7331C157.517 12.8027 157.526 12.8779 157.517 12.9519C157.47 13.2195 157.364 13.4725 157.207 13.6917C156.967 14.0359 156.671 14.3356 156.332 14.5777C155.887 14.8932 155.4 15.1423 154.886 15.3174C154.248 15.5333 153.579 15.6378 152.907 15.6263C152.204 15.6379 151.507 15.5023 150.857 15.228C150.249 14.9744 149.705 14.5824 149.267 14.0819C148.813 13.5848 148.461 12.9985 148.234 12.3585C147.991 11.6231 147.873 10.8505 147.885 10.0743V10.0743ZM152.828 6.97718C152.486 6.96703 152.145 7.02787 151.826 7.15602C151.568 7.25804 151.333 7.41294 151.135 7.61124C150.951 7.78547 150.802 7.99548 150.698 8.22903C150.6 8.43382 150.536 8.65345 150.507 8.87935H155.061C155.032 8.65805 154.981 8.44023 154.91 8.22903C154.835 7.99767 154.71 7.78653 154.544 7.61124C154.36 7.41159 154.135 7.25613 153.885 7.15602C153.548 7.02463 153.188 6.96381 152.828 6.97718V6.97718Z" fill="#455A64"/>
<path d="M174.404 14.8704C174.405 14.9436 174.392 15.0164 174.365 15.0844C174.339 15.1524 174.299 15.2143 174.249 15.2665C174.199 15.3187 174.139 15.3601 174.072 15.3884C174.006 15.4167 173.935 15.4313 173.864 15.4312H172.306C172.235 15.432 172.165 15.418 172.099 15.39C172.034 15.3621 171.974 15.3208 171.925 15.2687C171.872 15.2175 171.83 15.1557 171.801 15.0872C171.772 15.0187 171.758 14.9449 171.758 14.8704V9.63533C171.795 8.93043 171.596 8.23371 171.194 7.66001C170.983 7.4045 170.716 7.20407 170.415 7.07541C170.114 6.94674 169.787 6.89355 169.461 6.92028C169.145 6.90453 168.829 6.96301 168.539 7.09122C168.248 7.21944 167.99 7.41401 167.784 7.66001C167.35 8.21964 167.13 8.92175 167.164 9.63533V14.8704C167.166 14.9444 167.153 15.018 167.126 15.0865C167.098 15.1551 167.057 15.2171 167.005 15.2687C166.956 15.3204 166.896 15.3614 166.831 15.3894C166.765 15.4173 166.695 15.4315 166.624 15.4312H165.154C165.083 15.4315 165.013 15.4173 164.947 15.3894C164.882 15.3614 164.822 15.3204 164.772 15.2687C164.72 15.2171 164.679 15.1551 164.652 15.0865C164.625 15.018 164.612 14.9444 164.613 14.8704V5.2701C164.611 5.19717 164.624 5.12451 164.651 5.05714C164.678 4.98978 164.72 4.9293 164.772 4.87992C164.821 4.82555 164.879 4.78223 164.945 4.75281C165.011 4.72339 165.082 4.70853 165.154 4.70921H166.688C166.759 4.70853 166.83 4.72339 166.896 4.75281C166.962 4.78223 167.021 4.82555 167.069 4.87992C167.122 4.9293 167.163 4.98978 167.19 5.05714C167.218 5.12451 167.231 5.19717 167.228 5.2701V5.74158C167.588 5.37882 168.004 5.07943 168.46 4.85553C168.982 4.60936 169.554 4.48975 170.129 4.50599C170.834 4.48221 171.537 4.61533 172.187 4.89618C172.705 5.13154 173.161 5.49125 173.514 5.94481C173.859 6.39784 174.103 6.92207 174.229 7.48117C174.374 8.08497 174.447 8.70468 174.444 9.32643L174.404 14.8704Z" fill="#455A64"/>
<path d="M181.7 4.50598C182.383 4.49464 183.062 4.61316 183.702 4.85552C184.276 5.0866 184.801 5.42576 185.252 5.85538C185.687 6.26611 186.043 6.75697 186.301 7.30232C186.565 7.85646 186.719 8.45885 186.754 9.07443C186.764 9.23142 186.764 9.38891 186.754 9.5459V10.6921C186.764 10.8464 186.764 11.0011 186.754 11.1554C186.704 11.7694 186.548 12.3694 186.293 12.9275C186.043 13.4705 185.689 13.9569 185.252 14.3582C184.798 14.7738 184.273 15.0991 183.702 15.3174C182.416 15.7759 181.015 15.7759 179.729 15.3174C179.144 15.1047 178.604 14.7791 178.139 14.3582C177.705 13.9566 177.354 13.4702 177.106 12.9275C176.849 12.3699 176.69 11.7699 176.637 11.1554C176.637 11.0308 176.637 10.8763 176.637 10.6921C176.637 10.5051 176.637 10.3182 176.637 10.1231C176.637 9.92796 176.637 9.741 176.637 9.5459C176.637 9.35081 176.637 9.19636 176.637 9.07443C176.68 8.46011 176.833 7.85919 177.09 7.30232C177.348 6.75697 177.704 6.26611 178.139 5.85538C178.604 5.43207 179.143 5.10371 179.729 4.88804C180.357 4.63852 181.025 4.50903 181.7 4.50598V4.50598ZM184.139 9.13946C184.112 8.77055 184.012 8.41111 183.845 8.0827C183.705 7.82043 183.509 7.5929 183.273 7.41613C183.051 7.24861 182.796 7.13215 182.526 7.07471C182.266 7.01222 181.999 6.9795 181.731 6.97717C181.464 6.97902 181.197 7.01175 180.937 7.07471C180.667 7.13215 180.412 7.24861 180.19 7.41613C179.95 7.58839 179.754 7.81696 179.618 8.0827C179.447 8.40961 179.347 8.76985 179.324 9.13946C179.324 9.25326 179.324 9.39145 179.324 9.55403C179.324 9.71661 179.324 9.89545 179.324 10.0743C179.324 10.2531 179.324 10.4238 179.324 10.5945C179.317 10.7299 179.317 10.8656 179.324 11.001C179.346 11.3708 179.446 11.7312 179.618 12.0577C179.756 12.3242 179.951 12.555 180.19 12.7324C180.415 12.8935 180.669 13.0094 180.937 13.0739C181.198 13.1304 181.464 13.1603 181.731 13.1633C181.999 13.16 182.265 13.13 182.526 13.0739C182.794 13.0094 183.048 12.8935 183.273 12.7324C183.508 12.5505 183.702 12.3208 183.845 12.0577C184.013 11.7298 184.113 11.3701 184.139 11.001C184.139 10.9034 184.139 10.7652 184.139 10.5945V9.55403C184.155 9.39145 184.147 9.25326 184.139 9.10694V9.13946Z" fill="#455A64"/>
<path d="M192.476 11.5456C192.458 11.9177 192.577 12.2832 192.81 12.5699C192.98 12.7164 193.178 12.8259 193.391 12.8916C193.604 12.9573 193.828 12.9778 194.05 12.9519H195.281C195.352 12.9507 195.423 12.9645 195.489 12.9925C195.554 13.0205 195.614 13.062 195.663 13.1145C195.714 13.1651 195.754 13.2258 195.781 13.2929C195.809 13.36 195.822 13.432 195.822 13.5047V14.8622C195.823 14.9355 195.81 15.0082 195.783 15.0763C195.756 15.1443 195.717 15.2062 195.666 15.2583C195.616 15.3105 195.556 15.352 195.49 15.3803C195.424 15.4086 195.353 15.4231 195.281 15.4231H193.763C192.712 15.4941 191.674 15.1574 190.855 14.4802C190.492 14.1059 190.213 13.6555 190.037 13.16C189.862 12.6645 189.793 12.1358 189.838 11.6107V7.18852H188.502C188.359 7.18434 188.223 7.12366 188.122 7.01914C188.021 6.91462 187.964 6.77435 187.962 6.62763V5.2701C187.964 5.12337 188.021 4.9831 188.122 4.87858C188.223 4.77406 188.359 4.71338 188.502 4.7092H189.838V1.35196C189.838 1.20536 189.894 1.06476 189.996 0.961095C190.097 0.857431 190.235 0.799192 190.378 0.799192H191.912C191.983 0.797975 192.053 0.811789 192.119 0.839765C192.185 0.86774 192.244 0.909275 192.293 0.961771C192.344 1.01241 192.385 1.07311 192.412 1.14018C192.439 1.20725 192.453 1.2793 192.452 1.35196V4.7092H195.051C195.194 4.7152 195.331 4.77622 195.432 4.88014C195.534 4.98405 195.593 5.12326 195.599 5.2701V6.66827C195.593 6.81511 195.534 6.95431 195.432 7.05823C195.331 7.16214 195.194 7.22316 195.051 7.22916H192.452L192.476 11.5456Z" fill="#455A64"/>
<path d="M205.684 4.70921H208.481C208.554 4.70889 208.627 4.72388 208.693 4.75324C208.76 4.7826 208.821 4.82572 208.871 4.87992C208.922 4.93055 208.962 4.99125 208.99 5.05832C209.017 5.1254 209.031 5.19745 209.03 5.2701V6.66828C209.031 6.74094 209.017 6.81299 208.99 6.88006C208.962 6.94713 208.922 7.00783 208.871 7.05847C208.821 7.11266 208.76 7.15578 208.693 7.18514C208.627 7.2145 208.554 7.22949 208.481 7.22917H205.684V14.911C205.685 14.9843 205.672 15.057 205.645 15.125C205.619 15.193 205.579 15.2549 205.529 15.3071C205.478 15.3593 205.418 15.4008 205.352 15.4291C205.286 15.4573 205.215 15.4719 205.144 15.4719H203.61C203.539 15.4726 203.468 15.4586 203.403 15.4307C203.337 15.4027 203.278 15.3614 203.228 15.3093C203.175 15.2581 203.133 15.1964 203.105 15.1279C203.076 15.0593 203.061 14.9855 203.062 14.911V7.18853H201.711C201.639 7.18973 201.567 7.17512 201.502 7.14566C201.436 7.11621 201.377 7.0726 201.329 7.01782C201.277 6.96843 201.235 6.90796 201.208 6.84059C201.18 6.77322 201.167 6.70056 201.17 6.62763V5.2701C201.167 5.19717 201.18 5.12451 201.208 5.05714C201.235 4.98977 201.277 4.9293 201.329 4.87992C201.377 4.82513 201.436 4.78153 201.502 4.75208C201.567 4.72262 201.639 4.708 201.711 4.70921H203.038V3.78251C203.022 3.21033 203.119 2.64081 203.324 2.10796C203.49 1.66831 203.764 1.27941 204.119 0.978037C204.492 0.683017 204.923 0.472451 205.382 0.360241C205.919 0.233991 206.468 0.17395 207.019 0.181404H208.656C208.727 0.180187 208.798 0.193998 208.864 0.221973C208.929 0.249949 208.989 0.291487 209.038 0.343983C209.089 0.394622 209.129 0.455316 209.156 0.522389C209.184 0.589461 209.197 0.661512 209.197 0.73417V2.0917C209.198 2.16497 209.185 2.23772 209.158 2.30573C209.131 2.37374 209.092 2.43564 209.041 2.48783C208.991 2.54002 208.931 2.58147 208.865 2.60975C208.799 2.63804 208.728 2.6526 208.656 2.65259H207.274C206.866 2.62359 206.459 2.71984 206.105 2.92898C205.956 3.05772 205.841 3.22264 205.77 3.40865C205.699 3.59467 205.675 3.79586 205.7 3.99386L205.684 4.70921Z" fill="#455A64"/>
<path d="M215.221 4.50598C215.904 4.49464 216.583 4.61316 217.223 4.85552C217.785 5.09017 218.3 5.42916 218.741 5.85538C219.177 6.26611 219.532 6.75697 219.79 7.30232C220.055 7.85646 220.209 8.45885 220.243 9.07443C220.253 9.23142 220.253 9.38891 220.243 9.5459V10.6921C220.253 10.8464 220.253 11.0011 220.243 11.1554C220.193 11.7694 220.037 12.3694 219.782 12.9275C219.532 13.4705 219.178 13.9569 218.741 14.3582C218.287 14.7738 217.762 15.0991 217.192 15.3174C216.557 15.5365 215.89 15.6357 215.221 15.6101C214.535 15.6213 213.853 15.5028 213.21 15.2605C212.64 15.0422 212.114 14.7169 211.66 14.3013C211.226 13.8997 210.875 13.4133 210.627 12.8706C210.366 12.3143 210.207 11.7136 210.158 11.0985C210.158 10.9766 210.158 10.8221 210.158 10.6352C210.158 10.4482 210.158 10.2612 210.158 10.0662C210.158 9.87106 210.158 9.6841 210.158 9.489C210.158 9.29391 210.158 9.13946 210.158 9.01752C210.193 8.40194 210.347 7.79956 210.611 7.24542C210.866 6.72301 211.21 6.25205 211.629 5.85538C212.082 5.43738 212.607 5.10935 213.178 4.88804C213.83 4.63071 214.522 4.50109 215.221 4.50598V4.50598ZM217.605 9.10694C217.58 8.7386 217.483 8.3792 217.319 8.05018C217.178 7.78563 216.979 7.55763 216.739 7.38361C216.519 7.21626 216.267 7.09976 215.999 7.0422C215.739 6.9797 215.472 6.94698 215.205 6.94465C214.937 6.94609 214.67 6.97882 214.41 7.0422C214.14 7.09963 213.885 7.2161 213.663 7.38361C213.423 7.55587 213.227 7.78444 213.091 8.05018C212.921 8.3771 212.82 8.73734 212.797 9.10694C212.797 9.22075 212.797 9.35894 212.797 9.52152C212.797 9.68409 212.797 9.86293 212.797 10.0418C212.797 10.2206 212.797 10.3913 212.797 10.562C212.79 10.6974 212.79 10.8331 212.797 10.9685C212.819 11.3382 212.92 11.6987 213.091 12.0252C213.229 12.2917 213.425 12.5224 213.663 12.6999C213.889 12.861 214.142 12.9768 214.41 13.0413C214.671 13.0984 214.938 13.1284 215.205 13.1308C215.472 13.1274 215.738 13.0975 215.999 13.0413C216.265 12.9766 216.516 12.8607 216.739 12.6999C216.977 12.5207 217.175 12.2905 217.319 12.0252C217.484 11.6966 217.581 11.337 217.605 10.9685C217.615 10.8332 217.615 10.6973 217.605 10.562V9.55403C217.616 9.40521 217.616 9.25576 217.605 9.10694Z" fill="#455A64"/>
<path d="M222.46 5.2701C222.462 5.12337 222.52 4.9831 222.621 4.87858C222.721 4.77406 222.857 4.71338 223.001 4.7092H224.535C224.678 4.7152 224.814 4.77622 224.916 4.88014C225.018 4.98405 225.077 5.12326 225.083 5.2701V10.5051C225.048 11.2016 225.226 11.8918 225.592 12.4804C225.789 12.7389 226.047 12.9428 226.341 13.0734C226.635 13.204 226.957 13.2573 227.276 13.2283C227.587 13.2463 227.897 13.1878 228.18 13.0576C228.464 12.9275 228.713 12.7295 228.906 12.4804C229.308 11.9067 229.507 11.21 229.47 10.5051V5.2701C229.476 5.12326 229.535 4.98405 229.637 4.88014C229.739 4.77622 229.875 4.7152 230.018 4.7092H231.544C231.617 4.70888 231.689 4.72387 231.756 4.75323C231.823 4.7826 231.883 4.82571 231.933 4.87991C231.984 4.93055 232.025 4.99125 232.052 5.05832C232.079 5.12539 232.093 5.19744 232.092 5.2701V14.8703C232.093 14.9443 232.08 15.0177 232.053 15.0863C232.026 15.1548 231.985 15.2171 231.934 15.2694C231.883 15.3217 231.822 15.363 231.755 15.3908C231.688 15.4186 231.616 15.4323 231.544 15.4312H230.018C229.947 15.432 229.877 15.4179 229.811 15.39C229.746 15.3621 229.686 15.3208 229.637 15.2687C229.584 15.2175 229.542 15.1557 229.513 15.0872C229.484 15.0187 229.47 14.9449 229.47 14.8703V14.3989C229.128 14.7237 228.743 14.9974 228.325 15.2118C227.815 15.4814 227.246 15.613 226.672 15.5938C225.975 15.6177 225.28 15.4845 224.638 15.2036C224.13 14.9698 223.687 14.6092 223.351 14.155C223.017 13.6981 222.782 13.1747 222.659 12.6186C222.523 12.0135 222.457 11.3943 222.46 10.7734V5.2701Z" fill="#455A64"/>
<path d="M244.704 14.8704C244.706 14.9436 244.692 15.0164 244.666 15.0844C244.639 15.1524 244.599 15.2143 244.549 15.2665C244.499 15.3187 244.439 15.3601 244.373 15.3884C244.307 15.4167 244.236 15.4313 244.164 15.4312H242.63C242.559 15.432 242.489 15.418 242.423 15.39C242.358 15.3621 242.298 15.3208 242.249 15.2687C242.196 15.2175 242.154 15.1557 242.125 15.0872C242.096 15.0187 242.082 14.9449 242.082 14.8704V9.63533C242.119 8.93043 241.92 8.23371 241.518 7.66001C241.307 7.4045 241.04 7.20407 240.739 7.07541C240.438 6.94674 240.111 6.89355 239.785 6.92028C239.469 6.90453 239.154 6.96301 238.863 7.09122C238.572 7.21944 238.314 7.41401 238.108 7.66001C237.674 8.21964 237.454 8.92175 237.488 9.63533V14.8704C237.49 14.9444 237.477 15.018 237.45 15.0865C237.422 15.1551 237.381 15.2171 237.33 15.2687C237.28 15.3204 237.22 15.3614 237.155 15.3894C237.089 15.4173 237.019 15.4315 236.948 15.4312H235.414C235.343 15.4315 235.273 15.4173 235.207 15.3894C235.142 15.3614 235.083 15.3204 235.033 15.2687C234.981 15.2171 234.94 15.1551 234.913 15.0865C234.885 15.018 234.872 14.9444 234.874 14.8704V5.2701C234.871 5.19717 234.884 5.12451 234.911 5.05714C234.939 4.98978 234.98 4.9293 235.033 4.87992C235.081 4.82555 235.14 4.78223 235.206 4.75281C235.271 4.72339 235.343 4.70853 235.414 4.70921H236.948C237.02 4.70853 237.091 4.72339 237.157 4.75281C237.222 4.78223 237.281 4.82555 237.33 4.87992C237.382 4.9293 237.423 4.98978 237.451 5.05714C237.478 5.12451 237.491 5.19717 237.488 5.2701V5.74158C237.849 5.37882 238.265 5.07943 238.72 4.85553C239.243 4.60936 239.814 4.48975 240.389 4.50599C241.095 4.48221 241.797 4.61533 242.447 4.89618C242.966 5.13154 243.421 5.49125 243.775 5.94481C244.119 6.39784 244.363 6.92207 244.49 7.48117C244.635 8.08497 244.707 8.70468 244.704 9.32643V14.8704Z" fill="#455A64"/>
<path d="M251.412 4.50599C251.789 4.50119 252.165 4.54212 252.532 4.62793C252.831 4.69976 253.121 4.80328 253.399 4.93682C253.625 5.04658 253.839 5.18298 254.034 5.34327C254.187 5.4618 254.328 5.5952 254.456 5.74159V1.35197C254.456 1.27869 254.47 1.20614 254.497 1.13854C254.525 1.07094 254.566 1.00964 254.617 0.958207C254.668 0.90677 254.728 0.866225 254.795 0.838929C254.861 0.811633 254.932 0.798128 255.004 0.799206H256.546C256.617 0.796438 256.688 0.809544 256.754 0.837614C256.82 0.865685 256.879 0.90805 256.927 0.961785C256.981 1.01077 257.023 1.07097 257.052 1.13829C257.081 1.20562 257.095 1.27849 257.094 1.35197V14.8704C257.094 14.9449 257.08 15.0187 257.051 15.0872C257.022 15.1557 256.98 15.2175 256.927 15.2687C256.878 15.3208 256.818 15.3621 256.753 15.39C256.687 15.418 256.617 15.432 256.546 15.4313H255.02C254.948 15.4323 254.876 15.4186 254.809 15.3908C254.742 15.363 254.681 15.3217 254.63 15.2694C254.579 15.2171 254.538 15.1548 254.511 15.0863C254.484 15.0177 254.47 14.9443 254.471 14.8704V14.3989C254.344 14.5453 254.203 14.6787 254.05 14.7972C253.855 14.9575 253.641 15.0939 253.415 15.2036C253.137 15.3372 252.847 15.4407 252.548 15.5125C252.181 15.5983 251.805 15.6393 251.428 15.6345C250.799 15.645 250.177 15.5087 249.608 15.2362C249.077 14.9803 248.603 14.615 248.217 14.1631C247.829 13.7064 247.523 13.1837 247.311 12.6186C247.088 12.0346 246.961 11.4164 246.938 10.7896C246.938 10.5864 246.938 10.3426 246.938 10.0743C246.938 9.80604 246.938 9.55405 246.938 9.35082C246.961 8.72408 247.088 8.10584 247.311 7.52182C247.524 6.95767 247.831 6.43523 248.217 5.97733C248.603 5.52548 249.077 5.16017 249.608 4.90431C250.172 4.63413 250.789 4.49796 251.412 4.50599V4.50599ZM249.536 9.49715C249.497 9.88084 249.497 10.2678 249.536 10.6515C249.545 11.3751 249.83 12.0666 250.331 12.578C250.8 12.9725 251.393 13.1803 252 13.1633C252.61 13.1803 253.204 12.9661 253.669 12.5617C253.906 12.3456 254.098 12.0833 254.234 11.7902C254.371 11.4971 254.449 11.179 254.464 10.8547C254.493 10.5848 254.506 10.3133 254.503 10.0418C254.506 9.77026 254.492 9.49882 254.464 9.22889C254.431 8.59496 254.157 7.99914 253.702 7.56805C253.246 7.13696 252.644 6.90458 252.024 6.92028C251.417 6.90324 250.824 7.11108 250.355 7.50556C250.095 7.76457 249.889 8.07432 249.748 8.41643C249.607 8.75853 249.535 9.12604 249.536 9.49715V9.49715Z" fill="#455A64"/>
<path d="M141.662 35.7373C141.728 35.7366 141.793 35.7499 141.853 35.7765C141.913 35.8031 141.967 35.8424 142.012 35.8917C142.058 35.9382 142.095 35.9939 142.119 36.0554C142.144 36.117 142.156 36.183 142.155 36.2494V38.2491C142.156 38.3155 142.144 38.3815 142.119 38.443C142.095 38.5046 142.058 38.5603 142.012 38.6068C141.967 38.6561 141.913 38.6953 141.853 38.722C141.793 38.7486 141.728 38.7619 141.662 38.7612H132.92C132.855 38.7625 132.789 38.7493 132.729 38.7227C132.669 38.696 132.615 38.6565 132.571 38.6068C132.523 38.5607 132.485 38.5052 132.459 38.4437C132.433 38.3823 132.42 38.3161 132.42 38.2491V26.0557C132.42 25.9888 132.433 25.9226 132.459 25.8611C132.485 25.7996 132.523 25.7442 132.571 25.6981C132.615 25.6483 132.669 25.6088 132.729 25.5822C132.789 25.5555 132.855 25.5424 132.92 25.5436H141.527C141.659 25.5477 141.784 25.603 141.877 25.6981C141.97 25.7933 142.024 25.9212 142.028 26.0557V28.0473C142.029 28.1156 142.016 28.1834 141.99 28.2463C141.964 28.3093 141.925 28.3661 141.877 28.4131C141.831 28.4606 141.777 28.4981 141.717 28.5232C141.656 28.5484 141.592 28.5607 141.527 28.5594H135.837V30.5998H141.122C141.187 30.5986 141.253 30.6117 141.313 30.6383C141.373 30.665 141.427 30.7045 141.471 30.7542C141.519 30.8003 141.557 30.8558 141.583 30.9173C141.609 30.9787 141.622 31.045 141.622 31.1119V33.1116C141.622 33.1786 141.609 33.2448 141.583 33.3063C141.557 33.3677 141.519 33.4232 141.471 33.4693C141.427 33.519 141.373 33.5586 141.313 33.5852C141.253 33.6118 141.187 33.625 141.122 33.6238H135.837V35.7373H141.662Z" fill="#BA68C8"/>
<path d="M149.784 25.5355C150.518 25.5255 151.251 25.6157 151.962 25.8037C152.553 25.9647 153.109 26.2407 153.599 26.6166C154.048 26.974 154.403 27.4407 154.632 27.9742C154.881 28.5781 155.003 29.229 154.989 29.8844C155.021 30.7098 154.822 31.5272 154.417 32.2418C154.035 32.8653 153.483 33.3601 152.828 33.6644L155.117 38.1597C155.152 38.2245 155.171 38.297 155.172 38.371C155.172 38.481 155.13 38.5864 155.054 38.6642C154.977 38.7419 154.874 38.7856 154.767 38.7856H152.256C152.161 38.7954 152.066 38.7853 151.976 38.756C151.886 38.7266 151.802 38.6786 151.731 38.6149C151.632 38.5131 151.546 38.3983 151.477 38.2735L149.426 34.209H147.67V38.2735C147.671 38.3399 147.659 38.4059 147.635 38.4674C147.61 38.5289 147.574 38.5847 147.527 38.6312C147.483 38.6805 147.429 38.7197 147.368 38.7463C147.308 38.7729 147.243 38.7863 147.177 38.7856H144.793C144.728 38.7863 144.663 38.7729 144.602 38.7463C144.542 38.7197 144.488 38.6805 144.444 38.6312C144.397 38.5847 144.361 38.5289 144.336 38.4674C144.311 38.4059 144.299 38.3399 144.301 38.2735V26.0801C144.299 26.0137 144.311 25.9477 144.336 25.8862C144.361 25.8247 144.397 25.769 144.444 25.7224C144.488 25.6731 144.542 25.6339 144.602 25.6073C144.663 25.5807 144.728 25.5673 144.793 25.568L149.784 25.5355ZM147.694 31.2257H149.784C150.232 31.244 150.676 31.1402 151.072 30.9249C151.245 30.8068 151.384 30.6418 151.473 30.4482C151.561 30.2546 151.595 30.0399 151.572 29.8275C151.596 29.6164 151.561 29.4026 151.473 29.2103C151.384 29.0179 151.245 28.8545 151.072 28.7383C150.676 28.5231 150.232 28.4193 149.784 28.4375H147.67L147.694 31.2257Z" fill="#BA68C8"/>
<path d="M162.619 25.5355C163.353 25.5255 164.085 25.6157 164.796 25.8037C165.388 25.9647 165.944 26.2407 166.433 26.6166C166.885 26.9718 167.241 27.439 167.466 27.9742C167.716 28.5781 167.838 29.229 167.824 29.8844C167.855 30.7098 167.657 31.5272 167.252 32.2418C166.87 32.8653 166.317 33.3601 165.662 33.6644L167.951 38.1597C167.986 38.2245 168.005 38.297 168.007 38.371C168.007 38.481 167.964 38.5864 167.888 38.6642C167.812 38.7419 167.709 38.7856 167.602 38.7856H165.09C164.996 38.7954 164.901 38.7853 164.811 38.756C164.72 38.7266 164.637 38.6786 164.566 38.6149C164.467 38.5131 164.381 38.3983 164.311 38.2735L162.261 34.209H160.568V38.2735C160.568 38.3404 160.555 38.4067 160.529 38.4681C160.503 38.5296 160.465 38.5851 160.417 38.6312C160.373 38.6805 160.319 38.7197 160.259 38.7463C160.198 38.7729 160.133 38.7863 160.068 38.7856H157.644C157.578 38.7863 157.513 38.7729 157.453 38.7463C157.393 38.7197 157.339 38.6805 157.294 38.6312C157.248 38.5847 157.211 38.5289 157.186 38.4674C157.162 38.4059 157.15 38.3399 157.151 38.2735V26.0801C157.15 26.0137 157.162 25.9477 157.186 25.8862C157.211 25.8247 157.248 25.769 157.294 25.7224C157.339 25.6731 157.393 25.6339 157.453 25.6073C157.513 25.5807 157.578 25.5673 157.644 25.568L162.619 25.5355ZM160.537 31.2257H162.619C163.066 31.244 163.511 31.1402 163.906 30.9249C164.08 30.8068 164.219 30.6418 164.307 30.4482C164.396 30.2546 164.43 30.0399 164.407 29.8275C164.43 29.6164 164.396 29.4026 164.307 29.2103C164.219 29.0179 164.08 28.8545 163.906 28.7383C163.511 28.5231 163.066 28.4193 162.619 28.4375H160.537V31.2257Z" fill="#BA68C8"/>
<path d="M169.525 30.4697C169.559 29.7837 169.713 29.1094 169.978 28.4782C170.236 27.8601 170.621 27.3058 171.106 26.8524C171.62 26.37 172.222 25.997 172.878 25.755C174.437 25.213 176.128 25.213 177.686 25.755C178.342 25.9989 178.944 26.3718 179.459 26.8524C179.941 27.3061 180.324 27.8605 180.579 28.4782C180.852 29.1069 181.005 29.7826 181.032 30.4697C181.032 31.0062 181.072 31.5753 181.072 32.1687C181.072 32.7621 181.072 33.3149 181.032 33.7945C181.004 34.4841 180.851 35.1623 180.579 35.7942C180.317 36.408 179.936 36.961 179.459 37.42C178.94 37.9027 178.332 38.2732 177.671 38.5092C176.11 39.0405 174.423 39.0405 172.863 38.5092C172.206 38.273 171.603 37.9024 171.09 37.42C170.611 36.9613 170.227 36.4083 169.962 35.7942C169.698 35.1598 169.544 34.483 169.509 33.7945C169.509 33.2823 169.509 32.7296 169.509 32.1687C169.509 31.6078 169.501 31.0062 169.525 30.4697ZM177.631 33.7213C177.631 33.4937 177.631 33.2417 177.671 32.9653C177.71 32.6889 177.671 32.4044 177.671 32.1118C177.671 31.8191 177.671 31.5428 177.671 31.2989C177.671 31.055 177.671 30.7868 177.631 30.5673C177.611 30.2718 177.546 29.9812 177.44 29.7056C177.34 29.4462 177.189 29.2109 176.995 29.0147C176.792 28.8127 176.552 28.655 176.288 28.5513C175.967 28.4315 175.628 28.3736 175.286 28.3806C174.948 28.3727 174.611 28.4307 174.293 28.5513C174.026 28.653 173.782 28.8108 173.578 29.0147C173.387 29.213 173.235 29.4478 173.133 29.7056C173.027 29.9812 172.962 30.2718 172.942 30.5673C172.942 30.7841 172.926 31.0279 172.894 31.2989C172.894 31.5671 172.894 31.8517 172.894 32.1118C172.894 32.3719 172.894 32.6889 172.894 32.9653C172.894 33.2417 172.894 33.4937 172.942 33.7213C172.972 34.3033 173.196 34.8571 173.578 35.2902C173.804 35.5104 174.073 35.6793 174.368 35.7858C174.662 35.8923 174.975 35.9339 175.286 35.908C175.597 35.9348 175.909 35.8936 176.202 35.787C176.495 35.6805 176.763 35.5111 176.987 35.2902C177.361 34.8582 177.587 34.313 177.631 33.7376V33.7213Z" fill="#BA68C8"/>
<path d="M188.717 25.5355C189.451 25.526 190.183 25.6163 190.895 25.8037C191.484 25.9639 192.037 26.24 192.524 26.6166C192.976 26.9736 193.333 27.4401 193.565 27.9742C193.814 28.5781 193.936 29.229 193.922 29.8845C193.954 30.7098 193.755 31.5272 193.35 32.2418C192.959 32.8725 192.391 33.3681 191.721 33.6644L194.01 38.1597C194.047 38.2241 194.069 38.2965 194.073 38.3711C194.073 38.4261 194.061 38.4804 194.039 38.5307C194.017 38.581 193.986 38.6263 193.946 38.6637C193.909 38.703 193.865 38.7341 193.816 38.755C193.766 38.776 193.713 38.7864 193.66 38.7856H191.149C191.055 38.7954 190.959 38.7853 190.869 38.756C190.779 38.7266 190.696 38.6786 190.624 38.6149C190.527 38.5133 190.444 38.3984 190.378 38.2735L188.328 34.209H186.611V38.2735C186.607 38.408 186.553 38.5359 186.46 38.6311C186.367 38.7263 186.242 38.7815 186.11 38.7856H183.726C183.595 38.7815 183.47 38.7263 183.377 38.6311C183.284 38.5359 183.23 38.408 183.226 38.2735V26.0801C183.23 25.9456 183.284 25.8177 183.377 25.7225C183.47 25.6274 183.595 25.5721 183.726 25.568L188.717 25.5355ZM186.627 31.2257H188.717C189.162 31.2441 189.604 31.1402 189.997 30.925C190.173 30.8091 190.315 30.6449 190.405 30.4508C190.495 30.2568 190.529 30.0408 190.505 29.8276C190.529 29.6155 190.494 29.4009 190.404 29.2083C190.314 29.0156 190.173 28.8528 189.997 28.7383C189.604 28.523 189.162 28.4192 188.717 28.4375H186.611L186.627 31.2257Z" fill="#BA68C8"/>
<path d="M206.058 38.7612C205.991 38.7621 205.925 38.7488 205.863 38.7222C205.801 38.6956 205.746 38.6563 205.7 38.6068C205.654 38.5603 205.617 38.5046 205.592 38.4431C205.568 38.3815 205.556 38.3155 205.557 38.2491V36.3226H199.74C199.675 36.3238 199.61 36.3115 199.55 36.2863C199.49 36.2612 199.435 36.2237 199.39 36.1762C199.342 36.1292 199.303 36.0724 199.277 36.0095C199.251 35.9465 199.238 35.8788 199.239 35.8104V33.8107C199.229 33.5203 199.313 33.2347 199.477 32.9978L205.001 25.8769C205.084 25.7664 205.186 25.6727 205.303 25.6005C205.424 25.5537 205.554 25.5316 205.684 25.5355H208.474C208.539 25.5343 208.604 25.5474 208.665 25.574C208.725 25.6007 208.779 25.6402 208.823 25.6899C208.871 25.736 208.909 25.7915 208.934 25.853C208.96 25.9144 208.974 25.9806 208.974 26.0476V33.2986H210.564C210.696 33.301 210.821 33.3565 210.913 33.453C210.96 33.4996 210.996 33.5553 211.021 33.6168C211.046 33.6783 211.058 33.7443 211.056 33.8107V35.8104C211.057 35.9468 211.006 36.0782 210.913 36.1762C210.867 36.223 210.813 36.2599 210.753 36.285C210.693 36.3101 210.628 36.3229 210.564 36.3226H208.974V38.2491C208.974 38.3161 208.96 38.3823 208.934 38.4437C208.909 38.5052 208.871 38.5607 208.823 38.6068C208.779 38.6565 208.725 38.696 208.665 38.7227C208.604 38.7493 208.539 38.7625 208.474 38.7612H206.058ZM205.684 33.2986V29.8276L202.99 33.2986H205.684Z" fill="#BA68C8"/>
<path d="M218.002 25.3648C218.815 25.3457 219.625 25.4864 220.386 25.7793C221.007 26.0282 221.57 26.4076 222.039 26.893C222.473 27.3585 222.806 27.9125 223.017 28.5188C223.233 29.1504 223.361 29.8098 223.398 30.4779C223.398 31.0144 223.398 31.5834 223.398 32.1768C223.398 32.7702 223.398 33.323 223.398 33.8026C223.361 34.4706 223.233 35.13 223.017 35.7617C222.81 36.3697 222.477 36.9244 222.039 37.3874C221.57 37.8728 221.007 38.2522 220.386 38.5011C218.843 39.0538 217.162 39.0538 215.618 38.5011C214.997 38.2522 214.434 37.8728 213.965 37.3874C213.528 36.9244 213.194 36.3697 212.988 35.7617C212.772 35.13 212.643 34.4706 212.606 33.8026C212.606 33.2905 212.606 32.7377 212.606 32.1768C212.606 31.6159 212.606 31.0144 212.606 30.4779C212.643 29.8098 212.772 29.1504 212.988 28.5188C213.198 27.9125 213.531 27.3585 213.965 26.893C214.434 26.4076 214.997 26.0282 215.618 25.7793C216.379 25.4864 217.189 25.3457 218.002 25.3648ZM219.989 33.7376C220.037 32.6645 220.037 31.6078 219.989 30.5591C219.968 30.2679 219.921 29.9793 219.846 29.6975C219.787 29.4473 219.679 29.2121 219.528 29.0065C219.368 28.8057 219.164 28.6469 218.932 28.5432C218.64 28.42 218.326 28.3618 218.01 28.3725C217.694 28.3625 217.38 28.4207 217.088 28.5432C216.856 28.6469 216.652 28.8057 216.492 29.0065C216.342 29.2135 216.231 29.448 216.166 29.6975C216.087 29.9779 216.041 30.2673 216.031 30.5591C215.976 31.6178 215.976 32.6788 216.031 33.7376C216.044 34.0307 216.084 34.3219 216.15 34.6073C216.216 34.8579 216.33 35.0927 216.484 35.2983C216.647 35.4972 216.854 35.6533 217.088 35.7535C217.38 35.876 217.694 35.9341 218.01 35.9242C218.326 35.9349 218.64 35.8767 218.932 35.7535C219.166 35.6533 219.373 35.4972 219.536 35.2983C219.691 35.0927 219.804 34.8579 219.87 34.6073C219.936 34.3219 219.976 34.0307 219.989 33.7376V33.7376Z" fill="#BA68C8"/>
<path d="M231.743 38.7612C231.611 38.7572 231.486 38.7019 231.393 38.6067C231.3 38.5115 231.246 38.3836 231.242 38.2491V36.3226H225.425C225.36 36.3238 225.295 36.3115 225.235 36.2863C225.175 36.2612 225.121 36.2237 225.075 36.1762C224.98 36.079 224.926 35.9478 224.924 35.8104V33.8107C224.913 33.5189 225 33.232 225.17 32.9978L230.686 25.8769C230.769 25.764 230.875 25.6699 230.996 25.6005C231.115 25.5529 231.242 25.5307 231.369 25.5355H234.159C234.29 25.5396 234.415 25.5948 234.508 25.69C234.601 25.7852 234.655 25.9131 234.659 26.0476V33.2986H236.249C236.38 33.3027 236.505 33.3579 236.598 33.4531C236.691 33.5483 236.745 33.6762 236.749 33.8107V35.8104C236.747 35.9478 236.693 36.079 236.598 36.1762C236.553 36.2237 236.498 36.2612 236.438 36.2863C236.378 36.3115 236.314 36.3238 236.249 36.3226H234.659V38.2491C234.655 38.3836 234.601 38.5115 234.508 38.6067C234.415 38.7019 234.29 38.7572 234.159 38.7612H231.743ZM231.337 33.2986V29.8276L228.643 33.2986H231.337Z" fill="#BA68C8"/>
</svg>
